<svg width="413" height="191" viewBox="0 0 413 191" version="1.1" xmlns="http://www.w3.org/2000/svg"><title>talk_think_listen</title><g id="Page-1" stroke="none" stroke-width="1" fill="none" fill-rule="evenodd"><g id="Approach"><g id="talk_think_listen"><path d="M37.936 1.416h354.088v189.026H37.936V1.416z" id="Stroke-1" stroke="#58595B" stroke-linecap="round" stroke-linejoin="round"/><path d="M44.172 10.004c-.542 1.64 1.152 3.384 2.882 3.382 1.73 0 3.238-1.26 4.15-2.726 1.27 1.68 4.28 1.508 5.352-.303.057 1.34 1.554 2.246 2.897 2.173 1.344-.074 2.538-.837 3.66-1.576-.17.515.213 1.08.706 1.308.49.23 1.06.206 1.6.18l10.233-.513m-31.44 4.344c1.276.804 3.105.582 4.15-.503.188.967 1.307 1.525 2.287 1.413.98-.113 1.825-.72 2.572-1.363.214-.183.437-.377.712-.432.636-.128 1.133.5 1.567.98.435.48 1.288.842 1.654.308m61.81-6.795c1.297.284 2.71-.02 3.773-.812.73-.542 1.445-1.348 2.35-1.23-.47.93.194 2.11 1.13 2.572.936.46 2.036.397 3.077.312.414-.034.84-.073 1.207-.27.915-.49 1.59-1.923 2.528-1.482.33.155.512.508.797.733.774.606 1.874.084 2.825-.167.935-.247 1.92-.2 2.884-.123 2.268.18 4.525.515 6.75 1m37.352-1.6c2.495.33 5.062.655 7.503.042.634-.16 1.357-.368 1.9-.004.24.162.4.41.612.607.634.587 1.613.605 2.457.418.843-.187 1.657-.543 2.52-.585.57-.028 1.134.082 1.695.178 3.083.53 6.234.665 9.352.403m-24.97 4.597c1.734.323 3.828.528 4.97-.812.12-.143.23-.302.387-.403.43-.276.986-.01 1.463.175 1.062.414 2.234.405 3.374.39l7.212-.087m-17.98 4.524c3.208.196 6.432.12 9.626-.225m2.89.732h2.608m53.95-9.473c2.718.42 5.48.55 8.228.384.524-1.066 1.078-2.17 2.02-2.894.943-.724 2.395-.937 3.29-.154.853.747 1.114 2.25 2.233 2.442.418.07.837-.08 1.248-.187 3.122-.807 6.41 1.025 9.593.512m-27.4 4.734c1.356.558 2.997.36 4.18-.507.887 1.023 2.492.895 3.818.615 1.327-.28 2.85-.587 3.924.24m65.236-6.906c1.67.555 3.555.44 5.145-.317.22-.104.452-.222.69-.176.422.08.57.588.81.943.443.656 1.35.85 2.13.72.783-.13 1.495-.517 2.234-.802 5.058-1.95 10.944.902 16.11-.74m-27.298 5.46c2.41.41 4.972.805 7.233-.122.504-.207 1.003-.482 1.55-.495.685-.015 1.3.384 1.94.634.64.25 1.48.305 1.902-.235m3.505.075c.79.127 1.625-.043 2.3-.47 2.047.518 4.215.546 6.274.082m-23.938 4.52c1.43.608 2.906-.803 4.453-.96.646-.066 1.29.092 1.933.165 1.052.12 2.125.013 3.17.19.837.143 1.638.468 2.48.585.843.117 1.792-.017 2.367-.643M45.752 80.747c.762-.443 1.508-.912 2.237-1.407.26.828.544 1.69 1.158 2.306.615.616 1.67.89 2.367.368.526-.394.776-1.164 1.412-1.335.393-.107.804.06 1.21.06.807-.003 1.458-.642 2.22-.9 1.24-.415 2.555.217 3.836.478 1.28.26 3.01-.2 3.12-1.5.406.13.693.56.656.985 1.164.05 2.33.098 3.494.147 1.44 1.403 3.943 1.535 5.524.29.197-.155.408-.338.66-.328.4.017.596.482.883.763.29.28.993.083.78-.257m43.596-9.625c.798.81 2.06 1.132 3.15.803 1.09-.33 1.962-1.294 2.176-2.41.58.44.803 1.19 1.105 1.85.3.662.833 1.344 1.56 1.347.454.003.857-.263 1.267-.454 2.444-1.133 5.502.347 7.958-.76.61-.274 1.44-.65 1.833-.113.156.213.173.52.38.688.21.173.52.117.787.052l1.165-.286m-20.815 3.928c.94-.554 1.978-.94 3.052-1.136.31-.056.66-.09.923.083.514.337.402 1.226.927 1.545.688.418 1.37-.563 2.124-.842 1.277-.47 2.367 1.16 3.712 1.373.497.08 1-.044 1.49-.163 1.983-.484 3.98-.91 5.99-1.28m113.913-.835c1.22-.414 2.286-1.203 3.507-1.61 1.223-.41 2.784-.314 3.53.734.426.6.686 1.535 1.422 1.55.625.01.978-.688 1.455-1.094.968-.823 2.453-.39 3.586.188 1.133.576 2.4 1.28 3.602.864 1.23-.425 1.914-1.9 3.186-2.18 1.575-.343 3.137 1.345 4.666.834m50.465 17.577c1.292-.888 2.698-1.61 4.173-2.14.266 1.22.674 2.615 1.832 3.086.745.304 1.594.118 2.362-.122 2.295-.715 4.53-1.893 6.934-1.818 2.02.063 3.893 1.01 5.848 1.518 1.956.51 4.324.46 5.65-1.058m-27.325 6.254c1.23.07 2.473-.12 3.625-.552.29.978.74 1.91 1.33 2.743 1.78-1.035 3.7-1.83 5.694-2.358" id="Stroke-2" stroke="#404041" stroke-width=".999" stroke-linecap="round" stroke-linejoin="round"/><path d="M217.76 133.91c-.273.89.852 1.563 1.78 1.664 1.87.205 3.816-.423 5.21-1.683.336 1.098.447 2.263.326 3.403 2.42.13 4.473-1.816 6.867-2.202.912-.145 1.842-.06 2.764.003 4.2.285 8.433.083 12.585-.602l.52 1.107-30.052-1.686zm-169.73 1.624c1.596.025 3.195-.552 4.405-1.59.153-.13.317-.276.517-.288.5-.028.625.66.814 1.12.335.812 1.35 1.18 2.215 1.016.865-.165 1.592-.745 2.202-1.377.326.36.86.42 1.345.46l5.282.415c.588.046 1.193.09 1.76-.08.706-.21 1.29-.742 2.01-.91 1.747-.405 3.634 1.43 5.215.586l-25.766.648zM61.87 36.11l-12.725 1.13-1.134-12.688 12.727-1.13 1.133 12.69z" id="Stroke-3" stroke="#404041" stroke-width=".999" stroke-linecap="round" stroke-linejoin="round" fill="#FFF"/><path d="M51.27 27.89c.3.24.737.293 1.085.13.083-.038.17-.09.258-.073.066.012.12.058.177.09.357.21.79-.05 1.19-.152.072-.018.153-.03.215.008s.092.12.16.147c.068.03.145-.007.21-.043l.734-.398c.047.056.076.13.078.205l.65-.725c.043-.048.094-.1.157-.1.07.002.12.06.17.106.43.383 1.172-.036 1.664.26m-4.997 2.694c.51.06.983-.306 1.496-.31.256 0 .504.09.76.13.252.04.54.02.724-.16m-3.766 2.403c.83.08 1.68-.085 2.417-.47.13-.067.27-.144.415-.12.145.022.263.21.166.32.582-.085 1.18-.056 1.753.082" id="Stroke-4" stroke="#404041" stroke-linecap="round" stroke-linejoin="round"/><path d="M285.818 31.8l-12.75.805-.806-12.714 12.75-.802.806 12.713z" id="Stroke-5" stroke="#404041" stroke-width=".999" stroke-linecap="round" stroke-linejoin="round" fill="#FFF"/><path d="M275.433 23.313c.293.247.73.31 1.082.157.083-.037.17-.085.26-.067.066.013.118.06.175.096.35.217.79-.03 1.194-.124.072-.017.152-.026.213.014.06.04.09.12.156.15.068.032.146-.003.214-.036l.742-.38c.046.06.072.133.072.208l.67-.708c.044-.046.095-.096.16-.094.068.002.117.062.167.11.417.393 1.17-.007 1.655.303m-5.065 2.564c.508.072.99-.28 1.504-.27.257.004.503.1.756.147.253.047.542.034.73-.142m-3.827 2.306c.826.102 1.68-.04 2.428-.407.133-.063.275-.137.42-.11.143.028.257.217.157.324.584-.068 1.182-.024 1.75.13" id="Stroke-6" stroke="#404041" stroke-linecap="round" stroke-linejoin="round"/><path d="M133.77 48.687l-12.76-.59.59-12.723 12.76.588-.59 12.725z" id="Stroke-7" stroke="#404041" stroke-width=".999" stroke-linecap="round" stroke-linejoin="round" fill="#FFF"/><path d="M124.376 39.12c.265.277.693.387 1.06.273.085-.027.178-.066.265-.038.064.02.112.074.164.115.325.254.79.055 1.2.007.074-.01.155-.01.21.037.057.046.076.13.14.167.063.04.145.014.215-.013.26-.1.52-.197.78-.295.04.062.057.14.05.214.247-.21.495-.42.742-.632.048-.04.105-.085.17-.076.067.01.11.075.154.126.373.438 1.165.123 1.612.483m-5.315 1.997c.498.128 1.016-.17 1.525-.105.255.032.49.154.735.228.247.075.535.094.74-.06m-4.056 1.875c.81.19 1.677.142 2.46-.14.137-.05.286-.108.427-.065.14.043.232.243.12.34.59-.005 1.178.103 1.727.317" id="Stroke-8" stroke="#404041" stroke-linecap="round" stroke-linejoin="round"/><path d="M166.555 94.155l-12.73-1.084 1.087-12.69 12.73 1.082-1.087 12.693z" id="Stroke-9" stroke="#404041" stroke-width=".999" stroke-linecap="round" stroke-linejoin="round" fill="#FFF"/><path d="M157.54 84.23c.254.287.677.415 1.047.315.09-.024.182-.06.267-.028.063.023.108.077.16.12.314.268.786.087 1.198.055.073-.006.155-.004.21.045.054.048.07.132.13.17.064.043.146.02.218-.004l.79-.265c.038.065.053.142.042.216l.767-.6c.05-.04.108-.083.17-.072.068.013.108.08.15.133.356.45 1.16.167 1.593.544m-5.39 1.79c.493.146 1.022-.133 1.53-.047.252.042.48.174.724.258.244.085.532.115.743-.03m-4.126 1.716c.8.222 1.668.206 2.462-.045.14-.044.29-.095.43-.047.138.048.222.25.107.343.59.018 1.173.15 1.712.385" id="Stroke-10" stroke="#404041" stroke-linecap="round" stroke-linejoin="round"/><path d="M185.047 47.945h12.775v12.738h-12.775V47.945z" id="Stroke-11" stroke="#404041" stroke-width=".999" stroke-linecap="round" stroke-linejoin="round" fill="#FFF"/><path d="M187.994 51.56c.277.264.71.355 1.07.224.086-.03.176-.075.264-.05.065.017.114.068.17.106.335.24.79.02 1.198-.047.072-.013.153-.017.212.026.058.043.08.126.146.16.066.035.146.006.215-.024l.763-.332c.044.062.066.138.06.213.24-.222.477-.443.714-.665.047-.044.102-.09.165-.084.068.006.113.07.16.12.393.418 1.17.067 1.634.407m-5.217 2.24c.502.104 1.006-.218 1.517-.176.257.02.496.13.746.195.248.063.54.068.737-.096m-3.965 2.06c.818.154 1.68.064 2.45-.253.135-.057.28-.12.423-.085.142.037.244.233.137.333.588-.03 1.18.05 1.738.238" id="Stroke-12" stroke="#404041" stroke-linecap="round" stroke-linejoin="round"/><path d="M258.86 178.154l-12.696-1.428 1.432-12.66 12.696 1.43-1.433 12.658z" id="Stroke-13" stroke="#404041" stroke-width=".999" stroke-linecap="round" stroke-linejoin="round" fill="#FFF"/><path d="M250.12 167.988c.245.295.664.434 1.037.343.09-.02.183-.053.268-.02.062.025.105.08.155.126.308.275.785.107 1.197.086.074-.004.155 0 .208.05.053.05.067.135.127.176.062.043.145.023.217 0l.796-.243c.036.065.05.143.036.218.26-.195.522-.388.783-.58.05-.04.11-.08.173-.066.068.013.106.08.147.135.343.46 1.154.2 1.577.59m-5.435 1.64c.487.16 1.024-.103 1.527-.004.253.05.478.188.72.278.24.09.527.128.742-.012m-4.17 1.605c.794.242 1.66.25 2.46.02.142-.04.294-.088.43-.036.138.05.217.257.1.346.588.035 1.17.182 1.7.43" id="Stroke-14" stroke="#404041" stroke-linecap="round" stroke-linejoin="round"/><path d="M80.188 36.283l-12.75.81-.813-12.713 12.75-.81.813 12.713z" id="Stroke-15" stroke="#404041" stroke-width=".999" stroke-linecap="round" stroke-linejoin="round" fill="#FFF"/><path d="M70.11 28.297c-.06-.065.068-.16.148-.12.08.04.11.137.162.21.153.217.488.223.726.104.238-.12.415-.33.62-.498.207-.17.48-.302.735-.224.134.04.244.133.373.187.126.054.267.068.405.08.938.07 1.886-.002 2.8-.214m-5.347 2.957c.398.28.942.128 1.4-.03.46-.158 1.01-.3 1.398-.006" id="Stroke-16" stroke="#404041" stroke-linecap="round" stroke-linejoin="round"/><path d="M267.59 31.72l-12.74.955-.956-12.704 12.74-.952.956 12.703z" id="Stroke-17" stroke="#404041" stroke-width=".999" stroke-linecap="round" stroke-linejoin="round" fill="#FFF"/><path d="M257.425 23.85c-.062-.066.064-.162.145-.122.08.04.11.135.164.208.156.216.49.217.727.096.238-.123.413-.335.617-.506.204-.17.475-.308.73-.233.134.04.246.13.374.183.13.053.27.066.408.074.938.062 1.885-.02 2.8-.244m-5.315 3.016c.4.275.942.117 1.4-.046.457-.163 1.006-.31 1.396-.02" id="Stroke-18" stroke="#404041" stroke-linecap="round" stroke-linejoin="round"/><path d="M310.462 87.266l-12.76.635-.637-12.722 12.76-.635.637 12.723z" id="Stroke-19" stroke="#404041" stroke-width=".999" stroke-linecap="round" stroke-linejoin="round" fill="#FFF"/><path d="M300.497 79.144c-.06-.067.068-.16.147-.12.08.044.11.14.16.214.15.22.484.23.724.113.24-.116.42-.323.628-.49.21-.165.483-.295.737-.214.132.042.242.137.37.193.125.055.265.07.404.083.936.085 1.885.026 2.803-.175m-5.388 2.884c.394.285.94.14 1.4-.012.463-.15 1.014-.284 1.398.013" id="Stroke-20" stroke="#404041" stroke-linecap="round" stroke-linejoin="round"/><path d="M230.368 160.04l-12.69-1.472 1.476-12.654 12.69 1.472-1.476 12.653z" id="Stroke-21" stroke="#404041" stroke-width=".999" stroke-linecap="round" stroke-linejoin="round" fill="#FFF"/><path d="M221.883 150.39c-.047-.076.095-.147.166-.093.07.056.083.155.12.236.112.24.44.305.697.23.255-.075.467-.25.7-.38.233-.13.525-.21.762-.09.123.063.215.174.33.25.117.077.252.116.386.15.91.238 1.856.336 2.795.29m-5.79 1.957c.34.345.903.292 1.383.22.48-.074 1.047-.116 1.375.242" id="Stroke-22" stroke="#404041" stroke-linecap="round" stroke-linejoin="round"/><path d="M293.678 176.307l-12.726 1.126-1.13-12.69 12.727-1.125 1.128 12.69z" id="Stroke-23" stroke="#404041" stroke-width=".999" stroke-linecap="round" stroke-linejoin="round" fill="#FFF"/><path d="M283.406 168.574c-.062-.064.062-.163.143-.124.08.04.113.135.166.206.16.214.494.21.728.085.236-.124.408-.338.61-.512s.47-.314.727-.243c.136.037.248.128.377.178.13.05.27.062.408.07.94.047 1.885-.048 2.795-.283m-5.272 3.087c.403.27.943.105 1.398-.064.456-.17 1.002-.324 1.396-.04" id="Stroke-24" stroke="#404041" stroke-linecap="round" stroke-linejoin="round"/><path d="M24.975 71.1l-12.762-.592.595-12.726 12.763.594-.595 12.725z" id="Stroke-25" stroke="#404041" stroke-width=".999" stroke-linecap="round" stroke-linejoin="round" fill="#FFF"/><path d="M15.84 62.06c-.05-.073.086-.154.16-.104.074.05.094.148.138.226.13.233.46.275.71.182.25-.093.45-.28.673-.426.224-.145.51-.248.755-.144.128.055.227.16.348.228.12.068.258.097.395.122.923.174 1.874.207 2.808.096m-5.642 2.352c.364.32.92.23 1.395.123.473-.106 1.036-.186 1.387.147" id="Stroke-26" stroke="#404041" stroke-linecap="round" stroke-linejoin="round"/><path d="M340.955 36.114L328.28 34.52l1.6-12.64 12.675 1.595-1.6 12.64z" id="Stroke-27" stroke="#404041" stroke-width=".999" stroke-linecap="round" stroke-linejoin="round" fill="#FFF"/><path d="M332.564 26.382c-.047-.076.097-.146.167-.09.07.055.083.154.12.235.11.243.437.312.694.238.256-.072.47-.245.704-.372.234-.128.528-.207.763-.084.125.064.215.176.33.253.115.078.25.117.384.154.907.246 1.853.353 2.792.315m-5.81 1.902c.337.348.9.3 1.38.232.482-.07 1.05-.104 1.373.257" id="Stroke-28" stroke="#404041" stroke-linecap="round" stroke-linejoin="round"/><path d="M347.67 68.732l-12.607 2.064-2.07-12.57L345.6 56.16l2.07 12.572z" id="Stroke-29" stroke="#404041" stroke-width=".999" stroke-linecap="round" stroke-linejoin="round" fill="#FFF"/><path d="M336.85 61.78c-.066-.06.05-.167.134-.134.083.033.123.125.182.193.174.2.508.172.733.03.223-.142.38-.37.568-.557.188-.188.445-.348.707-.296.137.027.256.11.388.15.133.04.273.04.412.038.94-.02 1.876-.186 2.767-.49m-5.028 3.47c.423.24.948.036 1.39-.167.44-.202.975-.397 1.39-.144" id="Stroke-30" stroke="#404041" stroke-linecap="round" stroke-linejoin="round"/><path d="M61.18 100.244l-12.728 1.088L47.36 88.64l12.73-1.088 1.09 12.692z" id="Stroke-31" stroke="#404041" stroke-width=".999" stroke-linecap="round" stroke-linejoin="round" fill="#FFF"/><path d="M50.932 92.48c-.062-.064.063-.162.143-.122.08.04.114.134.167.206.16.214.493.213.728.088s.408-.34.61-.513c.203-.174.473-.313.73-.24.133.037.245.127.375.178.128.052.27.063.407.07.94.05 1.885-.04 2.796-.275m-5.282 3.074c.404.27.944.106 1.4-.062.456-.167 1.002-.32 1.396-.035" id="Stroke-32" stroke="#404041" stroke-linecap="round" stroke-linejoin="round"/><path d="M61.883 155.94l-12.774-.288.287-12.735 12.773.287-.287 12.735z" id="Stroke-33" stroke="#404041" stroke-width=".999" stroke-linecap="round" stroke-linejoin="round" fill="#FFF"/><path d="M52.532 147.12c-.054-.07.08-.156.156-.108s.1.146.144.223c.134.23.466.264.714.166.248-.1.443-.293.663-.443.218-.15.502-.26.75-.16.128.05.23.153.352.218.123.065.262.09.398.113.927.152 1.878.162 2.81.028m-5.584 2.487c.372.312.926.207 1.398.09.47-.118 1.03-.21 1.39.114" id="Stroke-34" stroke="#404041" stroke-linecap="round" stroke-linejoin="round"/><path d="M133.356 28.813l-12.68 1.562-1.566-12.643 12.68-1.562 1.566 12.643z" id="Stroke-35" stroke="#404041" stroke-width=".999" stroke-linecap="round" stroke-linejoin="round" fill="#FFF"/><path d="M122.823 21.438c-.064-.063.057-.166.138-.13.083.038.12.13.176.2.166.21.5.194.73.06.23-.133.396-.353.592-.534.195-.18.46-.33.72-.267.134.032.25.118.38.165.13.047.272.052.41.055.94.016 1.882-.113 2.784-.378m-5.163 3.266c.412.255.946.07 1.395-.113.45-.185.99-.358 1.394-.09" id="Stroke-36" stroke="#404041" stroke-linecap="round" stroke-linejoin="round"/><path d="M151.228 92.11l-12.488 2.687-2.695-12.452 12.49-2.687 2.693 12.453z" id="Stroke-37" stroke="#404041" stroke-width=".999" stroke-linecap="round" stroke-linejoin="round" fill="#FFF"/><path d="M140.076 85.704c-.07-.056.042-.17.127-.14.084.028.13.118.19.183.185.193.517.148.734-.005.218-.153.362-.387.54-.585.18-.197.43-.37.693-.33.138.02.26.095.395.13.134.034.275.028.413.018.938-.068 1.865-.28 2.738-.625m-4.85 3.714c.436.218.95-.013 1.382-.237.43-.224.954-.445 1.38-.212" id="Stroke-38" stroke="#404041" stroke-linecap="round" stroke-linejoin="round"/><path d="M362.648 114.755l-12.742.936-.938-12.703 12.74-.936.94 12.705z" id="Stroke-39" stroke="#404041" stroke-width=".999" stroke-linecap="round" stroke-linejoin="round" fill="#FFF"/><path d="M352.492 106.87c-.06-.065.066-.162.146-.122.08.04.112.136.164.21.155.215.49.217.727.095.236-.122.41-.333.615-.504.205-.172.476-.31.732-.234.133.04.244.13.373.184.128.053.27.066.406.075.938.063 1.886-.02 2.8-.24m-5.318 3.008c.4.276.94.12 1.4-.043.457-.163 1.006-.31 1.395-.02" id="Stroke-40" stroke="#404041" stroke-linecap="round" stroke-linejoin="round"/><path d="M197.97 39.956l-12.4-3.063 3.072-12.365 12.4 3.063-3.07 12.366z" id="Stroke-41" stroke="#404041" stroke-width=".999" stroke-linecap="round" stroke-linejoin="round" fill="#FFF"/><path d="M190.78 29.312c-.037-.08.113-.134.175-.07.064.063.065.163.092.248.08.253.397.36.66.317.264-.043.497-.19.744-.288.25-.1.548-.146.77.006.113.078.19.2.296.29.105.09.234.146.363.197.87.35 1.797.566 2.734.64m-5.993 1.21c.296.385.86.404 1.345.392.486-.013 1.053.018 1.334.415" id="Stroke-42" stroke="#404041" stroke-linecap="round" stroke-linejoin="round"/><path d="M220.346 62.13l-12.625-1.95 1.958-12.59 12.626 1.95-1.958 12.59z" id="Stroke-43" stroke="#404041" stroke-width=".999" stroke-linecap="round" stroke-linejoin="round" fill="#FFF"/><path d="M212.235 52.166c-.045-.077.1-.144.168-.086.07.058.08.157.114.24.102.245.428.322.686.257.26-.066.477-.233.715-.354.237-.12.532-.19.765-.06.12.067.208.18.322.262.112.08.246.124.378.164.9.27 1.842.404 2.782.393m-5.86 1.737c.326.358.89.327 1.372.27.484-.053 1.05-.073 1.365.296" id="Stroke-44" stroke="#404041" stroke-linecap="round" stroke-linejoin="round"/><path d="M365.647 32.093l-12.623 1.965-1.97-12.586 12.622-1.966 1.97 12.587z" id="Stroke-45" stroke="#404041" stroke-width=".999" stroke-linecap="round" stroke-linejoin="round" fill="#FFF"/><path d="M354.883 25.057c-.067-.06.05-.167.134-.133.083.033.123.126.18.194.173.202.507.177.733.037.227-.14.384-.366.573-.553.19-.187.45-.344.71-.29.137.028.256.11.388.153.132.042.274.043.412.04.94-.012 1.878-.17 2.77-.466m-5.055 3.43c.42.24.95.04 1.39-.158.445-.2.98-.39 1.39-.132" id="Stroke-46" stroke="#404041" stroke-linecap="round" stroke-linejoin="round"/><path d="M85.906 23.96h12.776V36.7H85.906V23.96z" id="Stroke-47" stroke="#404041" stroke-width=".999" stroke-linecap="round" stroke-linejoin="round" fill="#FFF"/><path d="M88.235 27.23c.784 0 1.57-.003 2.354-.005.083.035.048.158.036.248-.026.208.176.388.384.42.207.034.416-.036.617-.098.813-.252 1.665-.38 2.517-.378m-3.918 2.874c.212.076.422-.104.642-.147.222-.046.445.053.66.124.67.22 1.395.177 2.098.133.16-.01.328-.022.474-.09.146-.07.27-.21.27-.372m-5.65 2.738l1.713-.134c.043-.003.09-.006.127.018.05.034.057.103.082.158.073.16.288.19.466.18.485-.023.964-.148 1.4-.364.1-.05.22-.105.318-.05.063.038.094.112.14.17.14.182.41.188.642.177l1.747-.083" id="Stroke-48" stroke="#404041" stroke-linecap="round" stroke-linejoin="round"/><path d="M399.61 75.934h12.775v12.738H399.61V75.934z" id="Stroke-49" stroke="#404041" stroke-width=".999" stroke-linecap="round" stroke-linejoin="round" fill="#FFF"/><path d="M401.938 79.202l2.354-.005c.084.034.05.158.038.248-.026.208.176.388.383.42.208.035.417-.036.618-.1.814-.25 1.666-.38 2.517-.375m-3.917 2.872c.21.077.42-.104.64-.148.224-.045.446.054.662.125.67.217 1.394.176 2.097.13.16-.01.327-.02.473-.09.146-.068.27-.21.27-.37m-5.65 2.738l1.713-.134c.043-.004.09-.006.127.018.05.034.057.103.082.157.074.16.29.19.467.18.484-.023.964-.148 1.398-.365.1-.05.222-.104.32-.048.063.037.093.11.138.17.142.182.412.186.644.175l1.746-.084" id="Stroke-50" stroke="#404041" stroke-linecap="round" stroke-linejoin="round"/><path d="M61.438 56.703l-12.73-1.06 1.062-12.695 12.732 1.06-1.064 12.695z" id="Stroke-51" stroke="#404041" stroke-width=".999" stroke-linecap="round" stroke-linejoin="round" fill="#FFF"/><path d="M52.362 45.66c.203.548.723.93 1.28 1.116.556.186 1.153.2 1.74.215.165.005.33.01.492-.025.18-.036.346-.117.518-.18.773-.285 1.625-.22 2.446-.15-.06.21-.065.437-.015.65m-5.61 2.088c-.006.14.202.165.34.135.79-.17 1.57-.373 2.34-.61-.075.187.076.403.266.473.19.07.4.035.6 0m-3.817 3.108c.7.34 1.585.264 2.216-.19.65.39 1.358.685 2.092.88.242.064.523.11.725-.037" id="Stroke-52" stroke="#404041" stroke-linecap="round" stroke-linejoin="round"/><path d="M152.154 29.777l-12.693-1.452 1.457-12.656 12.692 1.45-1.456 12.657z" id="Stroke-53" stroke="#404041" stroke-width=".999" stroke-linecap="round" stroke-linejoin="round" fill="#FFF"/><path d="M143.423 18.458c.185.555.694.954 1.245 1.157.55.202 1.147.235 1.733.267.165.01.33.018.493-.01.18-.03.35-.106.524-.164.78-.26 1.63-.17 2.45-.074-.068.208-.08.434-.036.648m-5.672 1.914c-.01.142.197.172.337.146.793-.145 1.58-.325 2.357-.538-.08.185.064.406.252.48.188.076.4.047.6.017m-3.912 2.993c.69.36 1.576.312 2.22-.123.64.408 1.338.727 2.066.943.24.072.52.127.726-.013" id="Stroke-54" stroke="#404041" stroke-linecap="round" stroke-linejoin="round"/><path d="M80.467 100.525l-12.74-.95.952-12.704 12.74.952-.953 12.703z" id="Stroke-55" stroke="#404041" stroke-width=".999" stroke-linecap="round" stroke-linejoin="round" fill="#FFF"/><path d="M71.294 89.558c.208.548.73.927 1.29 1.107.558.18 1.155.19 1.742.2.164.002.33.004.49-.03.18-.038.347-.12.518-.185.77-.29 1.623-.234 2.445-.17-.06.21-.062.436-.01.65m-5.593 2.135c-.004.142.204.164.342.133.786-.177 1.565-.387 2.333-.63-.073.187.08.402.27.47.192.068.402.03.6-.008m-3.79 3.144c.704.333 1.588.25 2.216-.21.655.382 1.363.673 2.1.86.242.063.523.107.724-.04" id="Stroke-56" stroke="#404041" stroke-linecap="round" stroke-linejoin="round"/><path d="M118.766 173.674l-12.742.94-.944-12.703 12.742-.94.944 12.704z" id="Stroke-57" stroke="#404041" stroke-width=".999" stroke-linecap="round" stroke-linejoin="round" fill="#FFF"/><path d="M108.065 164.183c.287.51.86.808 1.44.904.58.095 1.17.017 1.752-.06.164-.022.328-.044.482-.102.17-.064.324-.17.483-.26.718-.4 1.57-.47 2.392-.53-.025.218.004.442.087.645m-5.212 2.938c.015.14.225.133.357.08.753-.29 1.49-.613 2.215-.968-.045.197.14.387.337.426.198.04.4-.03.59-.096m-3.28 3.668c.746.226 1.607.013 2.16-.535.705.282 1.45.465 2.205.542.25.026.533.03.71-.15" id="Stroke-58" stroke="#404041" stroke-linecap="round" stroke-linejoin="round"/><path d="M81.997 155.35l-12.74.932-.934-12.706 12.74-.93.934 12.705z" id="Stroke-59" stroke="#404041" stroke-width=".999" stroke-linecap="round" stroke-linejoin="round" fill="#FFF"/><path d="M71.305 145.85c.286.512.86.81 1.44.906.578.096 1.17.02 1.75-.058.165-.022.33-.045.483-.102.172-.064.325-.17.484-.26.72-.4 1.57-.468 2.392-.527-.025.217.005.44.088.644m-5.216 2.933c.016.14.225.133.358.082.752-.29 1.49-.614 2.216-.968-.046.196.138.387.337.426.2.04.4-.028.592-.096m-3.285 3.665c.744.227 1.606.014 2.16-.532.704.282 1.45.465 2.203.543.25.026.534.03.71-.148" id="Stroke-60" stroke="#404041" stroke-linecap="round" stroke-linejoin="round"/><path d="M31.785 53.478l-12.742.93-.934-12.705 12.74-.93.935 12.705z" id="Stroke-61" stroke="#404041" stroke-width=".999" stroke-linecap="round" stroke-linejoin="round" fill="#FFF"/><path d="M21.093 43.978c.286.51.86.808 1.44.905.578.096 1.17.018 1.75-.06.165-.02.33-.043.483-.1.172-.064.325-.17.484-.26.72-.4 1.57-.468 2.392-.527-.026.217.005.44.087.644m-5.216 2.933c.016.142.224.133.357.082.754-.29 1.493-.613 2.217-.967-.045.197.14.387.338.426.198.04.4-.028.592-.095m-3.285 3.664c.745.227 1.607.014 2.16-.533.705.283 1.45.467 2.204.545.25.025.534.03.71-.148" id="Stroke-62" stroke="#404041" stroke-linecap="round" stroke-linejoin="round"/><path d="M170.635 180.15l-12.44 2.898-2.907-12.405 12.44-2.898 2.907 12.405z" id="Stroke-63" stroke="#404041" stroke-width=".999" stroke-linecap="round" stroke-linejoin="round" fill="#FFF"/><path d="M158.59 172.427c.362.46.976.665 1.562.67.587.006 1.16-.163 1.722-.33.158-.046.318-.094.46-.174.16-.09.294-.22.438-.332.648-.507 1.478-.705 2.28-.89.01.217.074.434.187.62m-4.695 3.71c.038.136.243.095.367.024.698-.404 1.377-.837 2.038-1.3-.014.202.197.36.4.37.2.007.39-.09.57-.187m-2.673 4.13c.77.11 1.59-.235 2.05-.86.74.168 1.504.234 2.263.194.25-.012.53-.054.68-.256" id="Stroke-64" stroke="#404041" stroke-linecap="round" stroke-linejoin="round"/><path d="M189.152 170.525l-12.7-1.38 1.384-12.665 12.7 1.38-1.384 12.665z" id="Stroke-65" stroke="#404041" stroke-width=".999" stroke-linecap="round" stroke-linejoin="round" fill="#FFF"/><path d="M180.357 159.255c.19.554.7.95 1.252 1.15.55.198 1.147.23 1.734.258.163.007.33.015.492-.014.18-.033.35-.108.523-.168.778-.265 1.628-.178 2.447-.088-.065.21-.075.436-.03.65m-5.662 1.944c-.01.142.197.172.337.145.792-.15 1.577-.333 2.354-.55-.08.184.066.404.254.48.19.073.4.042.6.01m-3.894 3.014c.69.357 1.577.304 2.22-.134.642.404 1.34.718 2.07.93.24.07.52.125.725-.016" id="Stroke-66" stroke="#404041" stroke-linecap="round" stroke-linejoin="round"/><path d="M198.03 83.458l-12.675-1.588 1.592-12.64 12.677 1.588-1.593 12.64z" id="Stroke-67" stroke="#404041" stroke-width=".999" stroke-linecap="round" stroke-linejoin="round" fill="#FFF"/><path d="M189.423 72.046c.18.557.684.96 1.233 1.17.548.208 1.143.248 1.73.286.164.01.33.02.49-.005.183-.03.353-.103.528-.16.783-.25 1.63-.15 2.45-.047-.07.21-.084.433-.044.65m-5.692 1.852c-.012.14.195.174.335.15.795-.137 1.583-.31 2.363-.514-.083.184.06.407.247.485.187.077.4.05.6.022m-3.944 2.95c.684.367 1.57.328 2.22-.1.637.415 1.33.74 2.055.966.24.076.518.133.727-.005" id="Stroke-68" stroke="#404041" stroke-linecap="round" stroke-linejoin="round"/><path d="M264.39 93.385l-12.726-1.112 1.115-12.69 12.726 1.11-1.115 12.692z" id="Stroke-69" stroke="#404041" stroke-width=".999" stroke-linecap="round" stroke-linejoin="round" fill="#FFF"/><path d="M255.358 82.303c.2.55.72.936 1.276 1.123.556.187 1.153.205 1.74.22.164.005.33.01.492-.022.18-.036.347-.116.52-.18.773-.28 1.625-.21 2.445-.138-.06.21-.065.436-.016.65m-5.62 2.064c-.007.142.202.167.34.137.79-.166 1.57-.367 2.343-.6-.076.186.075.403.265.473.19.07.4.036.6 0m-3.83 3.096c.7.342 1.584.27 2.218-.182.65.39 1.355.69 2.088.887.242.067.523.115.726-.03" id="Stroke-70" stroke="#404041" stroke-linecap="round" stroke-linejoin="round"/><path d="M267.09 111.437l-12.608 2.052-2.057-12.573 12.61-2.052 2.056 12.572z" id="Stroke-71" stroke="#404041" stroke-width=".999" stroke-linecap="round" stroke-linejoin="round" fill="#FFF"/><path d="M255.598 102.92c.33.482.93.728 1.514.773.585.045 1.168-.084 1.74-.213.16-.036.323-.073.47-.143.166-.08.31-.198.46-.3.68-.464 1.523-.606 2.336-.738-.006.218.044.438.144.633m-4.935 3.383c.028.138.236.112.364.05.724-.356 1.432-.743 2.122-1.16-.027.2.172.373.373.395.202.023.398-.063.582-.146m-2.945 3.94c.76.16 1.6-.127 2.103-.72.727.218 1.484.335 2.244.346.25.003.533-.02.694-.21" id="Stroke-72" stroke="#404041" stroke-linecap="round" stroke-linejoin="round"/><path d="M271.07 157.422l-12.635 1.877-1.883-12.6 12.636-1.878 1.883 12.6z" id="Stroke-73" stroke="#404041" stroke-width=".999" stroke-linecap="round" stroke-linejoin="round" fill="#FFF"/><path d="M259.696 148.745c.324.488.92.743 1.504.796.584.053 1.17-.068 1.743-.19.16-.032.323-.067.473-.136.166-.077.31-.193.464-.294.686-.454 1.53-.584 2.345-.704-.01.218.037.44.135.635m-4.98 3.315c.026.14.234.116.362.055.728-.346 1.44-.722 2.137-1.13-.032.2.166.376.366.4.2.025.4-.058.584-.14m-3 3.9c.76.17 1.603-.105 2.114-.69.723.227 1.48.354 2.238.376.25.007.535-.01.698-.2" id="Stroke-74" stroke="#404041" stroke-linecap="round" stroke-linejoin="round"/><path d="M341.653 116.926l-12.695-1.43 1.434-12.66 12.695 1.43-1.434 12.66z" id="Stroke-75" stroke="#404041" stroke-width=".999" stroke-linecap="round" stroke-linejoin="round" fill="#FFF"/><path d="M332.902 105.62c.188.557.696.955 1.248 1.156.55.202 1.147.234 1.733.265.164.01.33.018.492-.01.18-.03.35-.107.523-.165.782-.262 1.63-.172 2.45-.08-.066.21-.078.436-.034.65m-5.67 1.924c-.01.14.198.17.338.145.792-.148 1.58-.33 2.356-.543-.08.185.065.405.252.48.188.076.4.046.6.016m-3.906 2.998c.69.36 1.576.31 2.22-.126.64.407 1.34.723 2.067.94.24.07.52.126.727-.015" id="Stroke-76" stroke="#404041" stroke-linecap="round" stroke-linejoin="round"/><path d="M231.18 176.787l-12.708 1.31-1.315-12.67 12.708-1.31 1.315 12.67z" id="Stroke-77" stroke="#404041" stroke-width=".999" stroke-linecap="round" stroke-linejoin="round" fill="#FFF"/><path d="M220.206 167.61c.302.503.885.784 1.466.863.582.08 1.17-.016 1.75-.11.163-.027.327-.055.48-.117.168-.07.318-.18.475-.273.706-.423 1.556-.516 2.376-.6-.02.22.017.442.105.642m-5.125 3.088c.02.14.23.126.36.07.744-.312 1.473-.657 2.186-1.032-.04.2.15.383.35.417.198.034.4-.04.588-.113m-3.173 3.762c.75.204 1.607-.034 2.143-.597.713.26 1.463.42 2.22.476.25.018.534.013.706-.17" id="Stroke-78" stroke="#404041" stroke-linecap="round" stroke-linejoin="round"/><path d="M80.203 57.036l-12.7-1.396 1.4-12.662 12.7 1.395-1.4 12.663z" id="Stroke-79" stroke="#404041" stroke-width=".999" stroke-linecap="round" stroke-linejoin="round" fill="#FFF"/><path d="M71.688 49.418c-.076.073-.112.182-.098.285l2.264-.203c.18-.016.366-.03.53.038.11.045.2.123.305.172.147.068.313.077.476.085l2.896.14" id="Stroke-80" stroke="#404041" stroke-linecap="round" stroke-linejoin="round"/><path d="M154.895 48.4l-12.66 1.72-1.723-12.623 12.66-1.72 1.723 12.624z" id="Stroke-81" stroke="#404041" stroke-width=".999" stroke-linecap="round" stroke-linejoin="round" fill="#FFF"/><path d="M144.78 43.07c-.054.09-.063.204-.024.3l2.146-.744c.17-.058.347-.118.524-.09.115.016.222.07.337.09.16.032.324 0 .484-.03.948-.19 1.896-.377 2.843-.565" id="Stroke-82" stroke="#404041" stroke-linecap="round" stroke-linejoin="round"/><path d="M132.762 93.397l-12.75.807-.81-12.714 12.75-.806.81 12.713z" id="Stroke-83" stroke="#404041" stroke-width=".999" stroke-linecap="round" stroke-linejoin="round" fill="#FFF"/><path d="M123.058 87.356c-.06.085-.08.2-.047.298.733-.197 1.465-.392 2.196-.59.173-.046.355-.092.53-.053.113.027.216.088.33.117.156.043.322.023.484.003.96-.12 1.917-.24 2.876-.358" id="Stroke-84" stroke="#404041" stroke-linecap="round" stroke-linejoin="round"/><path d="M167.455 110.683l-12.764.565-.564-12.726 12.763-.565.565 12.726z" id="Stroke-85" stroke="#404041" stroke-width=".999" stroke-linecap="round" stroke-linejoin="round" fill="#FFF"/><path d="M157.868 104.46c-.063.083-.082.197-.053.296l2.207-.547c.174-.044.356-.087.53-.045.113.028.215.09.326.123.157.045.323.03.485.01.962-.1 1.922-.2 2.884-.303" id="Stroke-86" stroke="#404041" stroke-linecap="round" stroke-linejoin="round"/><path d="M99.288 175.102l-12.72-1.184 1.186-12.684 12.72 1.184-1.186 12.684z" id="Stroke-87" stroke="#404041" stroke-width=".999" stroke-linecap="round" stroke-linejoin="round" fill="#FFF"/><path d="M90.646 167.627c-.073.074-.108.184-.093.287l2.26-.24c.18-.02.365-.038.532.028.108.043.2.12.307.167.148.064.316.07.478.076.966.03 1.932.06 2.898.093" id="Stroke-88" stroke="#404041" stroke-linecap="round" stroke-linejoin="round"/><path d="M221.64 37.475l-12.692 1.452-1.457-12.655 12.694-1.453 1.457 12.655z" id="Stroke-89" stroke="#404041" stroke-width=".999" stroke-linecap="round" stroke-linejoin="round" fill="#FFF"/><path d="M211.64 31.933c-.056.088-.067.203-.03.3l2.162-.7c.17-.054.35-.11.526-.08.115.02.22.075.335.1.158.034.323.006.484-.022l2.855-.503" id="Stroke-90" stroke="#404041" stroke-linecap="round" stroke-linejoin="round"/><path d="M297.52 106.95l-12.565-2.307 2.315-12.53 12.564 2.31-2.314 12.528z" id="Stroke-91" stroke="#404041" stroke-width=".999" stroke-linecap="round" stroke-linejoin="round" fill="#FFF"/><path d="M289.58 98.738c-.08.068-.125.174-.12.28.76-.014 1.517-.028 2.274-.04.18-.004.367-.005.527.075.105.053.19.137.292.193.142.08.308.1.47.12l2.878.35" id="Stroke-92" stroke="#404041" stroke-linecap="round" stroke-linejoin="round"/><path d="M292.672 155.84l-12.748-.85.852-12.71 12.747.85-.85 12.71z" id="Stroke-93" stroke="#404041" stroke-width=".999" stroke-linecap="round" stroke-linejoin="round" fill="#FFF"/><path d="M283.835 148.594c-.07.076-.103.187-.084.29l2.254-.3c.178-.024.363-.047.53.015.11.038.205.112.312.157.15.06.32.064.482.065l2.898.016" id="Stroke-94" stroke="#404041" stroke-linecap="round" stroke-linejoin="round"/><path d="M241.102 49.856l-12.5 2.627-2.635-12.465 12.5-2.627 2.635 12.466z" id="Stroke-95" stroke="#404041" stroke-width=".999" stroke-linecap="round" stroke-linejoin="round" fill="#FFF"/><path d="M230.628 45.27c-.048.092-.05.208-.003.3.696-.298 1.39-.598 2.087-.896.164-.07.337-.144.516-.13.116.01.227.055.342.07.162.017.324-.026.48-.07.932-.255 1.864-.51 2.796-.767" id="Stroke-96" stroke="#404041" stroke-linecap="round" stroke-linejoin="round"/><path d="M349.018 52.71l-12.75-.827.83-12.713 12.75.827-.83 12.712z" id="Stroke-97" stroke="#404041" stroke-width=".999" stroke-linecap="round" stroke-linejoin="round" fill="#FFF"/><path d="M340.17 45.48c-.072.076-.104.186-.086.29l2.253-.305c.178-.024.364-.047.532.014.11.04.202.112.31.157.15.06.32.063.48.064.967.005 1.934.01 2.9.012" id="Stroke-98" stroke="#404041" stroke-linecap="round" stroke-linejoin="round"/><path d="M62.698 118.38l-12.717-1.226 1.23-12.68 12.716 1.225-1.228 12.68z" id="Stroke-99" stroke="#404041" stroke-width=".999" stroke-linecap="round" stroke-linejoin="round" fill="#FFF"/><path d="M54.08 110.877c-.073.074-.11.184-.094.287l2.262-.234c.178-.018.364-.035.53.03.11.045.2.12.308.168.148.067.316.073.478.08l2.897.1" id="Stroke-100" stroke="#404041" stroke-linecap="round" stroke-linejoin="round"/><path d="M13.33 53.953L.616 52.727l1.228-12.68 12.717 1.225-1.23 12.68z" id="Stroke-101" stroke="#404041" stroke-width=".999" stroke-linecap="round" stroke-linejoin="round" fill="#FFF"/><path d="M4.714 46.45c-.073.074-.11.184-.094.287l2.262-.234c.178-.018.364-.036.53.03.11.044.2.12.307.168.147.067.315.074.477.08l2.898.102" id="Stroke-102" stroke="#404041" stroke-linecap="round" stroke-linejoin="round"/><path d="M81.51 73.173l-12.752.798-.8-12.713 12.75-.797.802 12.713z" id="Stroke-103" stroke="#404041" stroke-width=".999" stroke-linecap="round" stroke-linejoin="round" fill="#FFF"/><path d="M71.08 65.404c.335.546 1.1.595 1.743.557 1.32-.077 2.638-.256 3.932-.536.262-.057.565-.11.777.055.207.16.234.456.244.716l.007-.23m-5.754 2.7c.77.05 1.554-.19 2.168-.655-.072.076-.01.21.086.25.096.043.205.022.31.015.326-.02.66.1.896.326l.096-.2" id="Stroke-104" stroke="#404041" stroke-linecap="round" stroke-linejoin="round"/><path d="M133.02 112.076l-12.738-.976.98-12.7 12.738.974-.98 12.702z" id="Stroke-105" stroke="#404041" stroke-width=".999" stroke-linecap="round" stroke-linejoin="round" fill="#FFF"/><path d="M123.775 102.938c.256.587 1.007.74 1.648.793 1.32.107 2.648.11 3.97.013.267-.02.574-.03.76.163.183.187.17.484.143.744l.04-.227m-6.075 1.877c.757.154 1.567.028 2.24-.35-.082.065-.04.208.05.262.09.053.2.05.304.056.327.023.64.19.843.446l.123-.187" id="Stroke-106" stroke="#404041" stroke-linecap="round" stroke-linejoin="round"/><path d="M409.81 107.364l-12.738-.976.978-12.702 12.74.976-.98 12.702z" id="Stroke-107" stroke="#404041" stroke-width=".999" stroke-linecap="round" stroke-linejoin="round" fill="#FFF"/><path d="M400.565 98.225c.255.587 1.007.742 1.647.793 1.32.106 2.648.11 3.97.013.267-.02.574-.03.76.163.184.187.17.484.143.744l.04-.227m-6.075 1.878c.756.154 1.566.028 2.24-.35-.083.065-.04.208.05.26.088.054.2.05.303.058.327.023.64.19.843.446.04-.063.082-.125.123-.188" id="Stroke-108" stroke="#404041" stroke-linecap="round" stroke-linejoin="round"/><path d="M87.9 142.545h12.777v12.738H87.9v-12.738z" id="Stroke-109" stroke="#404041" stroke-width=".999" stroke-linecap="round" stroke-linejoin="round" fill="#FFF"/><path d="M90.756 146.878c.3.566 1.06.663 1.704.665 1.325.006 2.65-.092 3.958-.29.266-.04.57-.075.772.103.197.173.205.47.2.73l.02-.228m-5.912 2.335c.766.096 1.565-.09 2.207-.518-.078.07-.024.21.07.256.093.047.203.034.307.033.327 0 .653.14.874.382l.11-.197" id="Stroke-110" stroke="#404041" stroke-linecap="round" stroke-linejoin="round"/><path d="M187.727 151.676l-12.71 1.3-1.3-12.674 12.708-1.298 1.302 12.672z" id="Stroke-111" stroke="#404041" stroke-width=".999" stroke-linecap="round" stroke-linejoin="round" fill="#FFF"/><path d="M177 144.323c.355.533 1.123.55 1.762.49 1.318-.13 2.626-.362 3.908-.694.26-.068.56-.132.78.024.21.152.25.447.272.708 0-.078-.002-.154-.003-.23m-5.643 2.924c.77.018 1.546-.25 2.14-.74-.068.077 0 .21.097.247.097.036.205.012.31 0 .325-.033.663.075.907.29l.09-.205" id="Stroke-112" stroke="#404041" stroke-linecap="round" stroke-linejoin="round"/><path d="M63.4 178.143l-12.7 1.392-1.395-12.663 12.7-1.392 1.394 12.663z" id="Stroke-113" stroke="#404041" stroke-width=".999" stroke-linecap="round" stroke-linejoin="round" fill="#FFF"/><path d="M52.618 170.868c.36.53 1.128.544 1.766.476 1.317-.14 2.623-.38 3.903-.72.26-.07.56-.136.78.018.213.15.254.445.277.706l-.004-.23m-5.622 2.965c.772.012 1.545-.26 2.137-.756-.07.078 0 .21.097.247.098.036.206.01.31 0 .324-.038.664.068.91.282.03-.068.058-.137.086-.207" id="Stroke-114" stroke="#404041" stroke-linecap="round" stroke-linejoin="round"/><path d="M110.216 1.335l.39 126.113m-72.743.376h353.553M207.21 190.22v-62.396M177.875 1.474v125.974M247.883 1.083v126.74m71.57-126.74v125.96m-.39-60.834h-70.79m-70.397-3.12h-67.66" id="Stroke-115" stroke="#58595B"/></g></g></g></svg>