<svg width="460" height="217" viewBox="0 0 460 217" version="1.1" xmlns="http://www.w3.org/2000/svg"><title>turning_stones</title><g id="Page-1" stroke="none" stroke-width="1" fill="none" fill-rule="evenodd"><g id="Approach"><g id="turning_stones"><path d="M50.994 104.77h16.333v16.334H50.994V104.77z" id="Fill-1" fill="#E6E7E8"/><path d="M67.327 121.604H50.994c-.275 0-.5-.224-.5-.5v-16.332c0-.276.225-.5.5-.5h16.333c.276 0 .5.224.5.5v16.333c0 .275-.224.5-.5.5zm-15.834-.998h15.335V105.27H51.493v15.336z" id="Fill-2" fill="#404041"/><path d="M56.06 110.972c-.342 0-.686-.12-.91-.405-.154.016-.314-.055-.42-.188-.176-.224-.166-.53.025-.746.21-.236.56-.295.824-.135.193.117.278.294.33.398.047.074.19.098.32.042.15-.064.3-.187.46-.316.09-.075.182-.15.278-.218.484-.35.992-.453 1.422-.29.15.057.272.14.37.205.045.032.09.064.138.088.087.043.213.065.358.085 1.142.162 2.3.148 3.437-.044.266-.048.53.137.575.41.046.272-.138.53-.41.575-1.24.21-2.5.223-3.745.048-.215-.03-.442-.07-.664-.18-.09-.046-.17-.1-.252-.155-.06-.042-.12-.08-.16-.095-.1-.04-.292.025-.486.164-.08.057-.156.12-.232.182-.196.16-.42.34-.698.46-.17.072-.367.112-.563.112" id="Fill-3" fill="#404041"/><path d="M56.507 114.038c-.378 0-.772-.086-1.11-.357-.214-.172-.25-.488-.076-.702.174-.217.49-.25.704-.077.286.23.815.13 1.344-.016.747-.206 1.603-.345 2.24.21.21.18.233.498.052.706-.18.21-.5.23-.705.05-.283-.244-.83-.138-1.322 0-.282.076-.694.188-1.126.188" id="Fill-4" fill="#404041"/><path d="M166.994 104.77h16.333v16.334h-16.333V104.77z" id="Fill-5" fill="#E6E7E8"/><path d="M183.327 121.604h-16.333c-.275 0-.5-.224-.5-.5v-16.332c0-.276.225-.5.5-.5h16.333c.275 0 .5.224.5.5v16.333c0 .275-.225.5-.5.5zm-15.834-.998h15.335V105.27h-15.335v15.336z" id="Fill-6" fill="#404041"/><path d="M172.06 110.972c-.342 0-.686-.12-.91-.405-.152.016-.314-.055-.42-.188-.176-.224-.166-.53.025-.746.21-.236.56-.295.824-.135.193.117.278.294.33.398.047.074.19.098.32.042.15-.064.3-.187.458-.316.092-.075.184-.15.28-.218.485-.35.992-.453 1.422-.29.15.057.272.14.37.205.045.032.09.064.137.088.088.043.214.065.36.085 1.14.162 2.297.148 3.436-.044.27-.048.53.137.576.41.044.272-.14.53-.413.575-1.238.21-2.498.223-3.744.048-.215-.03-.442-.07-.664-.18-.09-.046-.17-.1-.252-.155-.06-.042-.12-.08-.16-.095-.102-.04-.292.025-.486.164-.08.057-.156.12-.232.182-.196.16-.42.34-.698.46-.17.072-.367.112-.563.112" id="Fill-7" fill="#404041"/><path d="M172.507 114.038c-.378 0-.772-.086-1.11-.357-.214-.172-.25-.488-.076-.702.175-.217.49-.25.704-.077.287.23.815.13 1.344-.016.747-.206 1.602-.345 2.24.21.21.18.233.498.052.706-.18.21-.5.23-.705.05-.284-.244-.828-.138-1.322 0-.282.076-.694.188-1.126.188" id="Fill-8" fill="#404041"/><path d="M405.494 199.77h16.333v16.334h-16.333V199.77z" id="Fill-9" fill="#E6E7E8"/><path d="M421.827 216.604h-16.333c-.275 0-.5-.224-.5-.5v-16.332c0-.276.225-.5.5-.5h16.333c.275 0 .5.224.5.5v16.333c0 .275-.225.5-.5.5zm-15.834-.998h15.335V200.27h-15.335v15.336z" id="Fill-10" fill="#404041"/><path d="M410.56 205.972c-.342 0-.686-.12-.91-.405-.155.012-.314-.055-.42-.188-.176-.224-.166-.53.025-.746.208-.236.56-.295.824-.135.193.117.278.294.33.398.047.074.19.098.32.042.15-.064.3-.187.458-.316.092-.075.184-.15.28-.218.484-.35.99-.452 1.422-.29.15.057.272.14.37.205.045.032.09.064.137.088.088.043.214.065.36.085 1.14.162 2.297.147 3.436-.044.265-.047.53.137.576.41.044.272-.14.53-.413.576-1.238.207-2.497.222-3.744.047-.215-.03-.442-.07-.664-.18-.09-.046-.17-.1-.252-.155-.06-.042-.12-.08-.16-.095-.102-.04-.29.025-.486.164-.08.057-.156.12-.232.182-.196.16-.42.34-.698.46-.17.072-.367.112-.563.112" id="Fill-11" fill="#404041"/><path d="M411.007 209.038c-.378 0-.772-.086-1.11-.357-.214-.172-.25-.488-.076-.702.175-.216.49-.248.704-.077.287.232.815.13 1.344-.016.747-.206 1.603-.345 2.24.21.21.18.233.498.052.706-.18.21-.498.23-.705.05-.283-.244-.828-.138-1.322 0-.282.076-.694.188-1.126.188" id="Fill-12" fill="#404041"/><path d="M27.994 139.27h16.333v16.334H27.994V139.27z" id="Fill-13" fill="#E6E7E8"/><path d="M44.327 156.104H27.994c-.275 0-.5-.224-.5-.5v-16.332c0-.276.225-.5.5-.5h16.333c.276 0 .5.224.5.5v16.333c0 .275-.224.5-.5.5zm-15.834-.998h15.335V139.77H28.493v15.336z" id="Fill-14" fill="#404041"/><path d="M33.06 145.472c-.342 0-.686-.12-.91-.405-.156.01-.314-.055-.42-.188-.176-.224-.166-.53.025-.746.21-.236.56-.295.824-.135.193.117.278.294.33.398.047.074.19.098.32.042.15-.064.3-.187.458-.316.092-.075.184-.15.28-.218.484-.35.99-.453 1.422-.29.15.057.272.14.37.205.045.032.09.064.137.088.088.043.214.065.36.085 1.14.162 2.297.147 3.436-.044.267-.047.53.137.576.41.044.272-.14.53-.413.575-1.238.208-2.498.223-3.744.048-.215-.03-.442-.07-.664-.18-.09-.046-.17-.1-.252-.155-.06-.042-.12-.08-.16-.095-.1-.04-.29.025-.486.164-.08.057-.155.12-.232.182-.196.16-.42.34-.698.46-.17.072-.367.112-.563.112" id="Fill-15" fill="#404041"/><path d="M33.507 148.538c-.378 0-.772-.086-1.11-.357-.214-.172-.25-.488-.076-.702.174-.217.49-.25.704-.077.287.232.815.13 1.344-.016.747-.206 1.603-.345 2.24.21.21.18.233.498.052.706-.18.21-.498.23-.705.05-.283-.244-.828-.138-1.322 0-.282.076-.694.188-1.126.188" id="Fill-16" fill="#404041"/><path d="M97.95 105.317h16.332v16.333H97.95v-16.333z" id="Fill-17" fill="#E6E7E8"/><path d="M114.282 122.15H97.95c-.276 0-.5-.224-.5-.5v-16.333c0-.275.224-.5.5-.5h16.332c.276 0 .5.225.5.5v16.333c0 .276-.224.5-.5.5zm-15.834-1h15.335v-15.334H98.448v15.335z" id="Fill-18" fill="#404041"/><path d="M104.528 110.425c-.447 0-.907-.033-1.356-.144-.97-.233-1.73-.804-2.086-1.564-.117-.25-.01-.548.24-.665.25-.116.55-.01.666.242.223.477.752.857 1.416 1.018.66.163 1.39.12 2.09.076.19-.012.367-.023.514-.066.135-.04.26-.104.384-.168l.186-.09c1.072-.502 2.277-.506 3.312-.5.15 0 .292.068.386.183.095.115.134.267.106.413-.038.194-.027.395.034.583.085.265-.06.546-.322.63-.264.084-.546-.06-.63-.322-.05-.157-.082-.32-.096-.483-.804.01-1.652.07-2.365.402l-.162.08c-.18.09-.36.177-.552.233-.255.075-.508.09-.732.104-.328.02-.676.04-1.032.04" id="Fill-19" fill="#404041"/><path d="M103.28 113.823c-.168 0-.342-.038-.487-.14-.165-.118-.265-.303-.273-.506-.01-.276.206-.508.482-.52.144.005.27.05.364.14.98-.294 1.917-.626 2.83-.994.18-.072.384-.036.526.095.14.13.196.33.14.514.17-.016.37-.07.546-.118.266-.072.54.085.613.353.073.266-.085.54-.352.612-.272.073-.64.173-1.027.064-.226-.06-.434-.205-.577-.394-.806.31-1.628.594-2.45.844-.096.03-.213.05-.333.05" id="Fill-20" fill="#404041"/><path d="M108.967 118.12c-.168 0-.333-.023-.484-.05-.902-.16-1.78-.433-2.61-.81-.88.604-2.042.752-3.047.362-.257-.1-.386-.39-.285-.646.1-.26.39-.386.647-.286.758.293 1.68.136 2.298-.393.154-.13.366-.156.545-.07.83.407 1.715.696 2.628.86.34.06.464.027.506-.012.21-.18.524-.157.706.052.18.21.157.525-.052.706-.256.22-.56.286-.85.286" id="Fill-21" fill="#404041"/><path d="M238.45 104.317h16.332v16.333H238.45v-16.333z" id="Fill-22" fill="#E6E7E8"/><path d="M254.782 121.15H238.45c-.276 0-.5-.224-.5-.5v-16.333c0-.275.224-.5.5-.5h16.332c.276 0 .5.225.5.5v16.333c0 .276-.224.5-.5.5zm-15.834-1h15.335v-15.334h-15.335v15.335z" id="Fill-23" fill="#404041"/><path d="M245.028 109.425c-.447 0-.907-.033-1.356-.144-.97-.233-1.73-.804-2.086-1.564-.117-.25-.01-.548.24-.665.25-.115.548-.01.666.242.223.477.752.857 1.416 1.018.662.163 1.39.12 2.09.076.19-.012.367-.023.514-.066.135-.04.26-.104.384-.168l.186-.09c1.072-.5 2.274-.5 3.313-.5.15 0 .29.068.385.183.095.115.134.267.106.413-.038.194-.027.395.034.583.085.265-.06.546-.322.63-.263.084-.546-.06-.63-.322-.05-.157-.082-.32-.096-.483-.804.01-1.652.07-2.365.402l-.162.08c-.18.09-.36.177-.552.233-.255.074-.508.09-.73.104-.33.02-.68.04-1.035.04" id="Fill-24" fill="#404041"/><path d="M243.78 112.823c-.168 0-.343-.038-.487-.14-.165-.118-.265-.303-.272-.506-.01-.276.206-.508.482-.52.13.004.27.05.364.14.98-.294 1.917-.626 2.83-.994.18-.072.384-.035.526.095.14.13.196.33.14.514.17-.016.37-.07.546-.118.264-.07.542.086.612.352.073.267-.085.54-.352.613-.272.073-.64.172-1.027.064-.226-.06-.434-.205-.577-.394-.806.31-1.628.594-2.45.844-.096.03-.213.05-.333.05" id="Fill-25" fill="#404041"/><path d="M249.467 117.12c-.168 0-.333-.023-.484-.05-.902-.16-1.78-.433-2.61-.81-.88.604-2.042.752-3.047.362-.257-.1-.386-.39-.285-.646.1-.258.39-.387.647-.286.758.292 1.68.136 2.298-.393.153-.13.365-.157.545-.07.83.407 1.715.696 2.628.86.34.06.465.028.506-.012.21-.177.523-.158.706.052.18.21.157.525-.052.706-.256.22-.56.286-.85.286" id="Fill-26" fill="#404041"/><path d="M189.95 104.817h16.332v16.333H189.95v-16.333z" id="Fill-27" fill="#E6E7E8"/><path d="M206.282 121.65H189.95c-.276 0-.5-.224-.5-.5v-16.333c0-.275.224-.5.5-.5h16.332c.276 0 .5.225.5.5v16.333c0 .276-.224.5-.5.5zm-15.834-1h15.335v-15.334h-15.335v15.335z" id="Fill-28" fill="#404041"/><path d="M196.528 109.925c-.447 0-.907-.033-1.356-.144-.97-.233-1.73-.804-2.086-1.564-.117-.25-.01-.548.24-.665.25-.115.55-.01.666.242.223.477.752.857 1.416 1.018.662.162 1.39.12 2.09.076.19-.012.367-.023.514-.066.135-.04.26-.104.384-.168l.186-.09c1.072-.5 2.276-.503 3.313-.5.15 0 .29.068.385.183.095.115.134.267.106.413-.038.194-.027.395.034.583.085.265-.06.546-.322.63-.263.084-.546-.06-.63-.322-.05-.157-.082-.32-.096-.483-.804.01-1.652.07-2.365.402l-.162.08c-.18.09-.36.177-.552.233-.255.075-.508.09-.732.104-.328.02-.676.04-1.032.04" id="Fill-29" fill="#404041"/><path d="M195.28 113.323c-.168 0-.343-.038-.487-.14-.165-.118-.265-.303-.273-.506-.01-.276.206-.508.482-.52.148.004.27.05.364.14.98-.294 1.917-.626 2.83-.994.182-.072.385-.035.526.095.14.13.196.33.14.514.17-.016.37-.07.546-.118.266-.072.54.085.612.352.073.267-.085.542-.352.613-.272.073-.64.173-1.027.064-.226-.06-.434-.205-.577-.394-.806.31-1.628.594-2.45.844-.096.03-.213.05-.333.05" id="Fill-30" fill="#404041"/><path d="M200.967 117.62c-.168 0-.333-.023-.484-.05-.902-.16-1.78-.433-2.61-.81-.88.604-2.042.752-3.047.362-.257-.1-.386-.39-.285-.646.1-.26.39-.387.648-.286.757.292 1.68.136 2.297-.393.153-.13.366-.157.545-.07.83.407 1.715.696 2.628.86.342.06.464.028.506-.012.21-.177.523-.157.706.052.18.21.157.525-.052.706-.255.22-.56.286-.85.286" id="Fill-31" fill="#404041"/><path d="M.95 141.817H17.28v16.333H.95v-16.333z" id="Fill-32" fill="#E6E7E8"/><path d="M17.282 158.65H.95c-.276 0-.5-.224-.5-.5v-16.333c0-.275.224-.5.5-.5H17.28c.276 0 .5.225.5.5v16.333c0 .276-.224.5-.5.5zm-15.834-1h15.335v-15.334H1.448v15.335z" id="Fill-33" fill="#404041"/><path d="M7.528 146.925c-.447 0-.907-.033-1.356-.144-.97-.233-1.73-.804-2.086-1.564-.117-.25-.01-.548.24-.665.25-.116.55-.01.666.242.223.477.752.857 1.416 1.018.66.162 1.39.12 2.09.076.19-.012.367-.023.514-.066.135-.04.26-.104.384-.168l.186-.09c1.072-.5 2.26-.505 3.313-.5.15 0 .29.068.385.183.095.115.134.267.106.413-.038.194-.027.395.034.583.085.265-.06.546-.322.63-.265.086-.546-.06-.63-.322-.05-.157-.082-.32-.096-.483-.804.01-1.652.07-2.365.402l-.162.08c-.18.09-.36.177-.552.233-.255.074-.508.09-.732.104-.328.02-.676.04-1.032.04" id="Fill-34" fill="#404041"/><path d="M6.28 150.323c-.168 0-.342-.038-.487-.14-.165-.118-.265-.303-.273-.506-.01-.276.206-.508.482-.52.135 0 .27.05.364.14.98-.294 1.917-.626 2.83-.994.18-.072.384-.035.526.095.14.13.196.33.14.514.17-.016.37-.07.546-.118.264-.07.54.085.613.352.073.267-.085.54-.352.613-.27.073-.64.172-1.027.064-.226-.06-.434-.205-.576-.394-.807.31-1.63.594-2.45.844-.097.03-.214.05-.334.05" id="Fill-35" fill="#404041"/><path d="M11.967 154.62c-.168 0-.333-.023-.484-.05-.902-.16-1.78-.433-2.61-.81-.88.604-2.042.752-3.047.362-.257-.1-.386-.39-.285-.646.1-.26.39-.387.647-.286.758.292 1.68.136 2.298-.393.153-.13.366-.156.545-.07.83.407 1.715.696 2.628.86.34.058.465.027.506-.012.208-.18.524-.157.706.052.18.21.157.525-.052.706-.255.22-.56.286-.85.286" id="Fill-36" fill="#404041"/><path d="M121.423 104.798h16.333v16.333h-16.333V104.8z" id="Fill-37" fill="#E6E7E8"/><path d="M137.757 121.63h-16.334c-.276 0-.5-.223-.5-.498V104.8c0-.277.224-.5.5-.5h16.334c.275 0 .5.223.5.5v16.332c0 .275-.225.5-.5.5zm-15.835-.997h15.336v-15.335h-15.336v15.335z" id="Fill-38" fill="#404041"/><path d="M125.782 113.493c-.223 0-.427-.15-.484-.375-.072-.282-.006-.588.178-.816.173-.217.488-.248.703-.076.052.043.094.094.125.15l2.226-.45c.246-.048.582-.113.92-.014.105.03.202.075.3.122.042.022.085.044.13.06.11.037.272.027.43.016l3.7-.225c.26-.025.51.193.528.47.017.274-.193.51-.47.528l-3.698.225c-.227.013-.517.033-.81-.067-.086-.028-.168-.067-.25-.107-.046-.023-.09-.047-.14-.062-.107-.03-.286.006-.442.037l-2.847.576c-.032.007-.066.01-.098.01" id="Fill-39" fill="#404041"/><path d="M21.923 165.798h16.333v16.333H21.923V165.8z" id="Fill-40" fill="#E6E7E8"/><path d="M38.257 182.63H21.923c-.276 0-.5-.223-.5-.498V165.8c0-.277.224-.5.5-.5h16.334c.275 0 .5.223.5.5v16.332c0 .275-.225.5-.5.5zm-15.835-.997h15.336v-15.335H22.422v15.335z" id="Fill-41" fill="#404041"/><path d="M26.282 174.493c-.223 0-.427-.15-.484-.375-.072-.282-.006-.588.178-.816.173-.216.487-.248.703-.076.052.043.094.094.125.15l2.226-.45c.247-.048.582-.113.92-.014.105.03.202.075.3.122.042.022.085.044.13.06.11.037.272.028.43.016l3.7-.225c.285-.02.51.193.528.47.017.274-.193.51-.47.528l-3.698.225c-.227.013-.516.033-.808-.067-.088-.028-.17-.067-.252-.107-.046-.023-.09-.047-.14-.062-.107-.028-.285.006-.44.037l-2.85.576c-.032.007-.066.01-.098.01" id="Fill-42" fill="#404041"/><path d="M213.923 104.298h16.333v16.333h-16.333V104.3z" id="Fill-43" fill="#E6E7E8"/><path d="M230.257 121.13h-16.334c-.276 0-.5-.223-.5-.498V104.3c0-.277.224-.5.5-.5h16.334c.275 0 .5.223.5.5v16.332c0 .275-.225.5-.5.5zm-15.835-.997h15.336v-15.335h-15.336v15.335z" id="Fill-44" fill="#404041"/><path d="M218.282 112.993c-.223 0-.427-.15-.484-.375-.072-.282-.006-.588.178-.816.172-.217.488-.248.703-.076.052.043.094.094.125.15l2.226-.45c.246-.048.582-.112.92-.014.105.03.202.075.3.122.042.022.085.044.13.06.11.037.272.027.43.016l3.7-.225c.26-.03.51.193.528.47.017.274-.193.51-.47.528l-3.698.225c-.227.014-.515.033-.808-.067-.088-.028-.17-.067-.252-.107-.046-.023-.09-.047-.14-.062-.107-.03-.285.006-.442.037l-2.847.576c-.032.007-.066.01-.098.01" id="Fill-45" fill="#404041"/><path d="M407.423 26.298h16.333V42.63h-16.333V26.3z" id="Fill-46" fill="#E6E7E8"/><path d="M423.757 43.13h-16.334c-.276 0-.5-.223-.5-.498V26.3c0-.277.224-.5.5-.5h16.334c.275 0 .5.223.5.5V42.63c0 .275-.225.5-.5.5zm-15.835-.997h15.336V26.798h-15.336v15.335z" id="Fill-47" fill="#404041"/><path d="M411.782 34.993c-.223 0-.427-.15-.484-.375-.072-.282-.006-.588.178-.816.172-.217.488-.248.703-.076.052.043.094.094.125.15l2.226-.45c.246-.048.582-.112.92-.014.105.03.202.075.3.122.042.022.085.044.13.06.108.037.273.028.43.016l3.7-.225c.262-.02.51.193.528.47.017.274-.193.51-.47.528l-3.698.225c-.227.013-.516.033-.808-.067-.088-.028-.17-.067-.252-.107-.046-.023-.09-.047-.14-.062-.107-.028-.285.006-.442.037l-2.847.576c-.032.007-.066.01-.098.01" id="Fill-48" fill="#404041"/><path d="M121.905 129.112h16.333v16.333h-16.333v-16.333z" id="Fill-49" fill="#E6E7E8"/><path d="M138.238 145.944h-16.334c-.275 0-.5-.223-.5-.5v-16.332c0-.275.225-.5.5-.5h16.334c.276 0 .5.225.5.5v16.333c0 .276-.224.5-.5.5zm-15.835-.998h15.336V129.61h-15.337v15.336z" id="Fill-50" fill="#404041"/><path d="M134.035 136.72c-.01 0-.018 0-.028-.002-.27-.015-.478-.24-.472-.51.003-.13.01-.467-.085-.552-.098-.09-.435-.036-.58-.013-1.698.258-3.463.36-5.14.378-.5 0-2.03-.005-2.618-1.118-.13-.244-.035-.546.21-.675.24-.127.545-.037.675.208.206.39.775.583 1.738.586 1.7-.004 3.34-.115 4.984-.366.33-.05.945-.145 1.393.253.257.228.36.528.4.802.038.078.055.167.048.26l-.027.294c-.023.26-.24.455-.498.455" id="Fill-51" fill="#404041"/><path d="M130.924 139.612c-.14 0-.274-.058-.368-.162-.19-.205-.484-.292-.747-.325-.202.004-.412.01-.62-.096-.037-.02-.07-.04-.103-.063-.813.398-1.75.56-2.646.448-.272-.034-.466-.284-.432-.56.034-.273.285-.472.558-.432.858.11 1.762-.105 2.48-.584.22-.147.513-.098.673.108.042.055.07.115.088.18.383.01.736.11 1.034.285.144-.07.317-.07.466.012.24.135.327.44.192.68l-.14.253c-.08.14-.22.233-.38.25-.018.003-.038.004-.056.004" id="Fill-52" fill="#404041"/><path d="M73.905 104.862h16.333v16.333H73.905v-16.333z" id="Fill-53" fill="#E6E7E8"/><path d="M90.238 121.694H73.904c-.275 0-.5-.223-.5-.5v-16.332c0-.275.225-.5.5-.5h16.334c.276 0 .5.225.5.5v16.333c0 .276-.224.5-.5.5zm-15.835-.998H89.74V105.36H74.402v15.336z" id="Fill-54" fill="#404041"/><path d="M86.035 112.47c-.01 0-.018 0-.028-.002-.27-.015-.478-.24-.472-.51.003-.13.01-.467-.085-.552-.098-.088-.435-.037-.58-.013-1.653.252-3.336.378-5.006.378h-.133c-.5 0-2.03-.005-2.618-1.118-.13-.244-.035-.546.21-.675.24-.128.545-.037.675.21.206.39.775.58 1.738.585 1.692-.01 3.34-.118 4.984-.368.33-.05.945-.145 1.393.253.257.228.36.528.4.802.038.078.055.167.048.26l-.027.294c-.023.26-.24.455-.498.455" id="Fill-55" fill="#404041"/><path d="M82.924 115.362c-.14 0-.274-.058-.368-.162-.188-.204-.465-.325-.743-.325-.04.008-.082.002-.124.002-.165 0-.333-.014-.5-.098-.037-.02-.07-.04-.103-.063-.813.398-1.75.56-2.646.448-.272-.034-.466-.284-.432-.56.034-.274.284-.467.558-.432.858.11 1.762-.105 2.48-.584.22-.147.513-.1.673.108.042.055.07.115.088.18.383.01.736.11 1.034.285.144-.072.317-.07.466.012.24.135.327.44.192.68l-.14.253c-.08.14-.22.233-.38.25-.018.003-.038.004-.056.004" id="Fill-56" fill="#404041"/><path d="M143.405 105.362h16.333v16.333h-16.333v-16.333z" id="Fill-57" fill="#E6E7E8"/><path d="M159.738 122.194h-16.334c-.275 0-.5-.223-.5-.5v-16.332c0-.275.225-.5.5-.5h16.334c.276 0 .5.225.5.5v16.333c0 .276-.224.5-.5.5zm-15.835-.998h15.336V105.86h-15.337v15.336z" id="Fill-58" fill="#404041"/><path d="M155.535 112.97c-.01 0-.018 0-.028-.002-.27-.015-.478-.24-.472-.51.003-.13.01-.467-.085-.552-.097-.09-.435-.036-.58-.013-1.698.258-3.453.364-5.14.38-.5-.004-2.03-.008-2.618-1.12-.13-.245-.035-.547.21-.676.24-.128.545-.037.675.21.206.39.775.58 1.738.584 1.69-.007 3.34-.115 4.984-.366.33-.05.945-.145 1.393.253.257.228.36.528.4.802.038.078.055.167.047.26l-.027.294c-.023.26-.24.455-.498.455" id="Fill-59" fill="#404041"/><path d="M152.424 115.862c-.14 0-.274-.058-.368-.162-.19-.206-.478-.282-.747-.325-.202.003-.412.01-.62-.096-.037-.02-.07-.04-.103-.063-.814.397-1.75.56-2.646.448-.272-.034-.466-.284-.432-.56.034-.273.286-.47.558-.432.858.11 1.762-.105 2.48-.584.218-.147.513-.1.673.108.042.055.07.116.088.18.383.01.736.11 1.034.285.144-.072.318-.07.466.012.24.135.327.44.192.68l-.14.253c-.08.14-.22.233-.38.25-.018.003-.038.004-.056.004" id="Fill-60" fill="#404041"/><path d="M265.405 104.862h16.333v16.333h-16.333v-16.333z" id="Fill-61" fill="#E6E7E8"/><path d="M281.738 121.694h-16.334c-.275 0-.5-.223-.5-.5v-16.332c0-.275.225-.5.5-.5h16.334c.276 0 .5.225.5.5v16.333c0 .276-.224.5-.5.5zm-15.835-.998h15.336V105.36h-15.337v15.336z" id="Fill-62" fill="#404041"/><path d="M277.535 112.47c-.01 0-.018 0-.028-.002-.27-.015-.478-.24-.472-.51.003-.13.01-.467-.085-.552-.097-.088-.436-.037-.58-.013-1.653.252-3.336.378-5.006.378h-.133c-.5 0-2.03-.005-2.618-1.118-.13-.244-.035-.546.21-.675.24-.128.545-.037.675.21.206.39.775.58 1.738.585 1.682-.01 3.34-.118 4.984-.368.33-.05.945-.145 1.393.253.257.228.36.528.4.802.038.078.055.167.048.26l-.027.294c-.023.26-.24.455-.498.455" id="Fill-63" fill="#404041"/><path d="M274.424 115.362c-.14 0-.274-.058-.368-.162-.19-.205-.425-.34-.747-.325-.2.006-.413.01-.62-.096-.037-.02-.07-.04-.103-.063-.813.398-1.75.56-2.646.448-.272-.034-.466-.284-.432-.56.034-.274.286-.467.558-.432.858.11 1.762-.105 2.48-.584.22-.147.513-.1.673.108.042.055.07.115.088.18.383.01.736.11 1.034.285.144-.072.318-.07.466.012.24.135.327.44.192.68l-.14.253c-.08.14-.22.233-.38.25-.018.003-.038.004-.056.004" id="Fill-64" fill="#404041"/><path d="M434.404 26.362h16.333v16.333h-16.333V26.362z" id="Fill-65" fill="#E6E7E8"/><path d="M450.738 43.194h-16.334c-.275 0-.5-.223-.5-.5V26.363c0-.275.225-.5.5-.5h16.334c.276 0 .5.225.5.5v16.333c0 .276-.224.5-.5.5zm-15.835-.998h15.336V26.86h-15.337v15.336z" id="Fill-66" fill="#404041"/><path d="M446.535 33.97c-.01 0-.018 0-.028-.002-.27-.015-.478-.24-.472-.51.003-.13.01-.467-.085-.552-.097-.09-.436-.036-.58-.013-1.653.252-3.336.38-5.006.38h-.133c-.5-.003-2.03-.008-2.618-1.12-.13-.245-.035-.547.21-.676.24-.127.545-.037.675.208.206.39.775.583 1.738.587 1.715.002 3.34-.118 4.984-.368.33-.05.945-.144 1.393.253.257.228.36.528.4.802.038.078.055.167.047.26l-.027.294c-.023.26-.24.455-.498.455" id="Fill-67" fill="#404041"/><path d="M443.424 36.862c-.14 0-.274-.058-.368-.162-.19-.205-.45-.323-.747-.325-.2.004-.412.01-.62-.096-.037-.02-.07-.04-.103-.063-.813.398-1.75.56-2.646.448-.272-.034-.466-.284-.432-.56.035-.274.282-.468.558-.432.857.11 1.762-.105 2.48-.584.22-.147.513-.1.673.108.042.055.07.116.088.18.383.01.736.11 1.034.285.144-.07.317-.07.466.012.24.135.327.44.192.68l-.14.253c-.08.14-.22.233-.38.25-.018.003-.038.004-.056.004" id="Fill-68" fill="#404041"/><path d="M213.905 127.862h16.333v16.333h-16.333v-16.333z" id="Fill-69" fill="#E6E7E8"/><path d="M230.238 144.694h-16.334c-.275 0-.5-.223-.5-.5v-16.332c0-.275.225-.5.5-.5h16.334c.276 0 .5.225.5.5v16.333c0 .276-.224.5-.5.5zm-15.835-.998h15.336V128.36h-15.337v15.336z" id="Fill-70" fill="#404041"/><path d="M226.035 135.47c-.01 0-.018 0-.028-.002-.27-.015-.478-.24-.472-.51.003-.13.01-.467-.085-.552-.097-.088-.436-.036-.58-.013-1.698.257-3.458.362-5.14.38-.5-.004-2.03-.008-2.618-1.12-.13-.245-.035-.547.21-.676.24-.127.546-.037.675.21.206.39.775.58 1.738.584 1.696-.01 3.34-.116 4.984-.366.33-.05.945-.144 1.393.253.257.228.36.528.4.802.038.078.055.167.047.26l-.027.294c-.023.26-.24.455-.498.455" id="Fill-71" fill="#404041"/><path d="M222.924 138.362c-.14 0-.274-.058-.368-.162-.19-.205-.455-.3-.747-.325-.202.004-.412.01-.62-.096-.037-.02-.07-.04-.103-.063-.813.398-1.75.56-2.646.448-.272-.034-.466-.284-.432-.56.035-.273.293-.47.558-.432.857.107 1.762-.105 2.48-.584.22-.146.513-.1.673.108.042.055.07.116.088.18.383.01.736.11 1.034.285.145-.07.318-.07.466.012.24.135.327.44.192.68l-.14.253c-.08.14-.22.233-.38.25-.018.003-.038.004-.056.004" id="Fill-72" fill="#404041"/><path d="M121.905 150.862h16.333v16.333h-16.333v-16.333z" id="Fill-73" fill="#E6E7E8"/><path d="M138.238 167.694h-16.334c-.275 0-.5-.223-.5-.5v-16.332c0-.275.225-.5.5-.5h16.334c.276 0 .5.225.5.5v16.333c0 .276-.224.5-.5.5zm-15.835-.998h15.336V151.36h-15.337v15.336z" id="Fill-74" fill="#404041"/><path d="M134.035 158.47c-.01 0-.018 0-.028-.002-.27-.015-.478-.24-.472-.51.003-.13.01-.467-.085-.552-.098-.09-.435-.036-.58-.013-1.698.258-3.463.363-5.14.38-.5-.003-2.03-.008-2.618-1.12-.13-.245-.035-.547.21-.676.24-.127.545-.037.675.208.206.39.775.583 1.738.586 1.7-.01 3.34-.116 4.984-.366.33-.05.945-.144 1.393.253.257.228.36.528.4.802.038.078.055.167.048.26l-.027.294c-.023.26-.24.455-.498.455" id="Fill-75" fill="#404041"/><path d="M130.924 161.362c-.14 0-.274-.058-.368-.162-.188-.204-.465-.325-.743-.325l-.124.002c-.165 0-.333-.014-.5-.098-.037-.02-.07-.04-.103-.063-.813.398-1.75.56-2.646.448-.272-.034-.466-.284-.432-.56.034-.274.285-.47.558-.432.858.108 1.762-.105 2.48-.584.22-.146.513-.098.673.108.042.055.07.115.088.18.383.01.736.11 1.034.285.144-.07.317-.07.466.012.24.135.327.44.192.68l-.14.253c-.08.14-.22.233-.38.25-.018.003-.038.004-.056.004" id="Fill-76" fill="#404041"/><path d="M37.434 81.248c-1.34 0-2.73-.383-3.18-1.427-2.426.54-4.902.66-7.373.35-.274-.035-.468-.285-.434-.56.035-.275.304-.468.558-.433 2.514.314 5.032.166 7.49-.44.138-.034.288-.006.407.078.12.084.196.215.21.36.09.908 1.63 1.093 2.528 1.07 3.744-.127 7.524-.433 11.236-.913.277-.038.524.157.56.432.036.274-.158.525-.43.56-3.745.484-7.558.793-11.333.92-.078.002-.157.004-.236.004" id="Fill-77" fill="#404041"/><path d="M57.553 80.78c-.22 0-.417-.145-.48-.36l-.603-2.063-3.19 1.577c-.246.12-.548.02-.67-.227-.122-.248-.02-.548.227-.67l3.724-1.84c.134-.063.288-.068.423-.01.135.06.238.176.28.318l.652 2.23 5.45-.608c.268-.028.524.167.554.44.03.276-.168.523-.442.554l-5.87.656c-.018.002-.037.003-.055.003" id="Fill-78" fill="#404041"/><path d="M80.357 82.834c-.653 0-1.28-.16-1.818-.593-.612-.49-.912-1.19-1.202-1.864-.277-.645-.54-1.255-1.04-1.547-.89-.52-1.81.116-3.21 1.23-1.275 1.01-2.718 2.157-4.286 1.505-.256-.107-.376-.4-.27-.654.106-.255.4-.376.653-.27 1.02.427 2.12-.442 3.28-1.363 1.307-1.04 2.79-2.215 4.337-1.31.785.456 1.14 1.284 1.455 2.014.253.59.49 1.146.91 1.482.86.694 2.23.305 3.458-.17l6.186-2.396c.258-.1.55.027.648.285.1.26-.027.547-.285.647l-6.187 2.397c-.81.313-1.74.61-2.63.61" id="Fill-79" fill="#404041"/><path d="M31.056 91.914c-.16 0-.315-.075-.41-.216-.16-.227-.102-.54.125-.695 4.096-2.83 9.81-3.18 14.22-.874.245.127.34.43.212.674-.13.246-.43.34-.675.212-4.09-2.14-9.388-1.815-13.187.81-.087.06-.186.088-.284.088" id="Fill-80" fill="#404041"/><path d="M54.294 92.148c-.356 0-.71-.067-1.04-.21-.687-.294-1.217-.937-1.418-1.716-.056-.22-.083-.437-.082-.65l-2.48 1.31c-.24.128-.545.036-.674-.21-.13-.243-.036-.546.21-.675l3.544-1.873c.21-.11.465-.06.616.12.15.18.156.443.012.63-.22.282-.285.683-.177 1.098.122.475.446.877.844 1.05.797.342 1.904-.056 2.415-.874.147-.234.457-.304.69-.158.233.147.305.455.158.69-.58.925-1.61 1.468-2.62 1.468" id="Fill-81" fill="#404041"/><path d="M76.5 92.856c-.722 0-1.442-.09-2.143-.276-.24-.063-.397-.294-.37-.54.02-.146-.016-.252-.117-.355-.295-.306-1.095-.49-1.856-.43-.835.07-2.024-.087-2.65-.747-.114-.122-.205-.257-.27-.4-1.623.677-3.297 1.262-4.987 1.743-.268.08-.542-.08-.617-.343-.076-.266.078-.542.344-.617 1.85-.528 3.685-1.183 5.45-1.95.165-.072.36-.05.502.06.145.11.218.288.193.467-.02.143.013.25.112.353.296.312 1.085.502 1.84.44.836-.07 2.034.083 2.658.73.198.205.325.445.376.707 1.996.42 4.147-.003 5.826-1.16.226-.155.538-.1.696.128.157.228.1.54-.128.696-1.42.98-3.14 1.496-4.86 1.496" id="Fill-82" fill="#404041"/><path d="M92.82 92.368c-.567 0-1.13-.125-1.676-.423-.29-.16-.594-.37-.9-.58-1.017-.708-1.503-.954-1.853-.625-.203.19-.518.176-.706-.025-.188-.202-.177-.52.025-.707 1-.928 2.166-.116 3.105.536.275.19.546.38.81.524 1.658.91 3.78-.45 5.234-1.55.22-.163.533-.122.7.098.167.22.123.534-.097.7-1.255.948-2.96 2.052-4.643 2.052" id="Fill-83" fill="#404041"/><path d="M144.444 82.344c-.25 0-.466-.19-.496-.444-.03-.274.166-.522.44-.553l5.487-.622c.263-.03.522.165.554.44.03.275-.167.523-.442.554l-5.486.62c-.02.003-.038.004-.058.004" id="Fill-84" fill="#404041"/><path d="M155.458 83.152c-.776 0-1.553-.214-2.203-.636-.233-.15-.298-.46-.15-.692.152-.233.463-.295.693-.148.866.56 2.027.637 2.958.19.246-.12.548-.015.667.235.12.25.013.548-.236.668-.538.257-1.133.384-1.73.384" id="Fill-85" fill="#404041"/><path d="M166.493 84.262c-.84 0-1.59-.747-2.035-1.19-.328-.326-.84-.558-1.137-.52-.103.015-.147.058-.182.12-.14.24-.447.32-.683.184-.24-.138-.322-.444-.185-.683.197-.34.523-.558.918-.61.72-.093 1.505.334 1.975.8.523.52 1.116 1.05 1.52.85.377-.19.357-.906.274-1.475-.022-.156.03-.314.142-.426.11-.112.27-.165.425-.14l4.47.663c.273.04.46.294.42.567-.04.274-.298.464-.567.42l-3.844-.57c.018.933-.274 1.555-.87 1.855-.218.11-.432.155-.64.155" id="Fill-86" fill="#404041"/><path d="M147.637 89.413c-.207 0-.402-.13-.473-.337-.09-.26.05-.546.31-.636 3.59-1.24 7.315-1.847 11.13-1.794 2.192.028 4.13.27 5.922.74.268.068.428.34.358.608-.07.268-.347.432-.61.358-1.713-.448-3.573-.68-5.684-.706-3.698-.056-7.31.538-10.79 1.74-.054.018-.11.027-.163.027" id="Fill-87" fill="#404041"/><path d="M134.025 195.528c-1.055 0-2.373-.336-2.985-1.115-.16-.204-.264-.426-.31-.66l-2.668.563c-.265.055-.535-.114-.592-.385-.057-.27.115-.534.385-.592l3.295-.695c.177-.036.35.02.47.15s.163.312.113.48c-.06.203-.03.364.094.523.35.447 1.427.763 2.376.728l9.178-.432c.288-.038.512.2.523.475.014.276-.2.51-.475.523l-9.178.433c-.073.003-.148.005-.225.005" id="Fill-88" fill="#404041"/><path d="M150.5 194.438c-.21 0-.404-.133-.475-.342-.087-.262.055-.545.317-.633 2.617-.872 5.438-1.107 8.163-.676.272.043.46.3.416.572-.043.272-.302.455-.57.415-2.567-.407-5.226-.186-7.692.637-.053.018-.105.026-.158.026" id="Fill-89" fill="#404041"/><path d="M151.932 199.797h-.016l-21.494-.674c-.276-.01-.493-.24-.485-.516.01-.275.24-.47.516-.484l21.494.674c.277.01.493.24.485.516-.01.27-.23.484-.5.484" id="Fill-90" fill="#404041"/><path d="M144.25 205.654c-.062 0-.124-.01-.184-.034-2.907-1.14-6.077-1.514-9.17-1.076-1 .14-3.08.435-3.842-1.06-.126-.246-.03-.547.217-.672.248-.124.55-.03.674.217.388.757 1.642.69 2.812.524 3.262-.46 6.606-.07 9.676 1.135.256.1.383.39.283.647-.077.197-.267.317-.466.317" id="Fill-91" fill="#404041"/><path d="M152.934 205.238h-4c-.277 0-.5-.223-.5-.5 0-.276.223-.5.5-.5h4c.276 0 .5.224.5.5 0 .277-.224.5-.5.5" id="Fill-92" fill="#404041"/><path d="M143.438 212.63h-.023l-13.518-.625c-.275-.013-.49-.246-.475-.523.013-.275.236-.506.522-.475l13.518.625c.275.012.488.246.475.522-.01.268-.233.477-.5.477" id="Fill-93" fill="#404041"/><path d="M157.14 214.108c-.112 0-.225-.038-.318-.115-1.674-1.385-4.237-1.57-6.093-.44-.152.094-.34.097-.496.015-.156-.083-.256-.242-.264-.418l-.068-1.438c-.753.454-1.66.653-2.535.542-.274-.036-.467-.287-.43-.56.035-.276.302-.466.56-.432.912.12 1.866-.223 2.494-.895.138-.146.348-.2.54-.127.188.07.317.245.325.446l.077 1.64c2.117-.91 4.745-.577 6.527.898.212.175.242.49.065.703-.098.12-.24.18-.384.18" id="Fill-94" fill="#404041"/><path d="M296.663 185.75c-.657 0-1.454-.264-1.923-.71-.188.154-.403.285-.64.385-.678.286-1.412.266-2.005-.047-.244-.13-.338-.432-.21-.676.13-.245.434-.336.677-.21.325.174.756.178 1.15.01.27-.112.496-.295.644-.512.037-.173.12-.34.248-.494.152-.182.41-.232.62-.12.21.11.31.355.244.582-.024.08-.053.16-.085.235.09.233.733.573 1.353.555l8.655-.472c.307-.02.512.197.527.472.016.275-.196.512-.472.526l-8.654.472c-.04.003-.084.004-.127.004" id="Fill-95" fill="#404041"/><path d="M310.88 185.195c-.11 0-.22-.036-.312-.11-.216-.172-.25-.486-.078-.702.47-.585 1.2-.97 2.004-1.052.803-.08 1.597.145 2.176.622.213.176.243.49.067.704-.176.214-.492.243-.704.068-.373-.308-.895-.45-1.436-.398-.54.056-1.024.304-1.326.682-.097.123-.243.187-.39.187" id="Fill-96" fill="#404041"/><path d="M294.434 192.6c-.91 0-1.818-.208-2.622-.63-.245-.13-.338-.432-.21-.676.128-.246.433-.337.675-.21 1.502.788 3.45.67 4.842-.298.226-.157.537-.1.694.125.16.228.102.54-.125.696-.946.66-2.102.994-3.256.994" id="Fill-97" fill="#404041"/><path d="M303.437 192.802c-.265 0-.487-.208-.5-.475-.013-.276.2-.51.474-.524 1.897-.095 3.76-.66 5.39-1.636.22-.134.512-.074.664.14.288.41.465.898.512 1.398l3.464.05c.277.003.497.23.494.506-.004.274-.227.494-.5.494h-.007l-3.956-.056c-.14-.002-.272-.062-.366-.167-.092-.103-.138-.242-.125-.382.03-.29-.014-.59-.12-.865-1.658.9-3.513 1.424-5.398 1.518-.01.002-.018.002-.025.002" id="Fill-98" fill="#404041"/><path d="M294.478 199.587c-.248 0-.463-.184-.496-.437-.035-.273.16-.524.433-.56 7.44-.955 15.015-1.47 22.514-1.525.265-.036.5.22.503.496.002.277-.22.502-.496.505-7.46.056-14.995.567-22.395 1.518-.022.003-.043.004-.064.004" id="Fill-99" fill="#404041"/><path d="M432.002 199.597c-.056 0-.11-.01-.165-.03-.193-.066-.326-.245-.335-.45l-.06-1.42c-1.774.658-3.732.822-5.59.457-.27-.052-.448-.315-.394-.587.052-.27.315-.45.587-.393 1.896.372 3.905.135 5.66-.668.15-.07.327-.06.47.028.14.088.23.24.237.406l.045 1.077c1.315-.93 3.078-1.194 4.604-.616.26.1.39.388.293.646-.1.258-.39.386-.645.29-1.475-.56-3.295-.1-4.33 1.09-.096.11-.234.17-.376.17" id="Fill-100" fill="#404041"/><path d="M448.43 199.092c-1.654 0-3.27-.724-4.364-1.968-.182-.207-.163-.522.045-.705.207-.185.524-.163.706.044.94 1.067 2.414 1.68 3.83 1.623.757-.035 1.494-.244 2.273-.465.626-.18 1.274-.362 1.946-.452.27-.05.526.154.562.43.037.272-.155.524-.43.56-.6.08-1.186.247-1.806.424-.8.227-1.627.46-2.498.5-.09.006-.176.008-.264.008" id="Fill-101" fill="#404041"/><path d="M434.16 203.337c-1.13 0-2.262-.148-3.358-.443-.267-.072-.425-.346-.353-.613.07-.265.342-.42.61-.35 1.95.52 4.017.542 5.98.055.316-.08.636-.17.957-.262 1.36-.392 2.77-.793 4.173-.334.288.093.565.223.842.355.37.176.718.342 1.073.39.605.084 1.22-.17 1.875-.437.306-.124.61-.248.92-.342.836-.258 1.79-.17 2.43.215.444.27.726.663.817 1.143.052.27-.127.532-.398.584-.268.048-.535-.126-.585-.4-.038-.196-.153-.35-.35-.47-.4-.24-1.066-.286-1.62-.117-.282.088-.56.202-.838.315-.748.306-1.525.62-2.387.5-.51-.067-.945-.276-1.368-.477-.237-.113-.475-.227-.723-.308-1.112-.365-2.314-.02-3.588.344-.332.095-.664.19-.993.272-1.022.254-2.07.38-3.12.38" id="Fill-102" fill="#404041"/><path d="M427.947 209.752c-.135 0-.27-.055-.368-.162-.187-.203-.175-.52.03-.706 1.504-1.382 3.453-2.244 5.49-2.43.232-.01.44.118.515.334.36 1.023 1.562 1.492 2.53 1.495h.007c1.16 0 2.337-.508 3.375-.955.252-.11.55.007.658.26.11.255-.008.55-.26.658-1.128.486-2.404 1.037-3.773 1.037h-.01c-1.194-.004-2.664-.57-3.308-1.792-1.688.228-3.292.977-4.55 2.13-.095.088-.216.132-.337.132" id="Fill-103" fill="#404041"/><path d="M449.543 210.08c-2.066 0-4.132-.18-6.163-.54-.272-.05-.453-.31-.404-.58.047-.272.305-.45.58-.405 5.048.897 10.325.642 15.258-.743.267-.076.542.082.617.347.075.265-.08.54-.346.615-3.093.87-6.318 1.305-9.54 1.305" id="Fill-104" fill="#404041"/><path d="M420.24 20.415c-.75 0-1.515-.122-2.212-.337-.538-.165-1.074-.367-1.61-.57-1.39-.524-2.693-1.02-4.054-.87-.27.03-.52-.168-.552-.443-.03-.274.168-.52.443-.55 1.59-.177 3.078.386 4.517.928.516.196 1.032.39 1.55.55 1.782.544 4.057.436 4.857-1.095.127-.245.43-.337.674-.212.245.128.34.43.21.675-.72 1.382-2.243 1.925-3.823 1.925" id="Fill-105" fill="#404041"/><path d="M427.938 19.936c-.27 0-.494-.217-.5-.49-.005-.275.213-.505.49-.51l5.635-.126c3.72-.084 7.57-.17 11.387-.046.277.01.492.24.484.516-.01.27-.232.484-.5.484h-.017c-3.79-.127-7.624-.038-11.33.046l-5.638.126h-.012" id="Fill-106" fill="#404041"/><path d="M199.497 8.25c-.206 0-.398-.127-.472-.332-.09-.26.045-.546.305-.64 3.032-1.07 6.168-2.18 9.47-2.406 2.758-.183 5.49.252 8.138.677l5.552.89c.273.045.458.302.414.575-.044.272-.305.452-.572.415l-5.553-.894c-2.593-.415-5.268-.85-7.912-.666-3.166.215-6.235 1.302-9.204 2.353-.056.02-.11.028-.167.028" id="Fill-107" fill="#404041"/><path d="M195.948 21.912c-.262 0-.482-.204-.5-.47-.016-.274.194-.51.47-.53l21.066-1.324c.534-.033 1.12-.178 1.168-.482.044-.275.304-.46.572-.417.273.04.46.297.417.57-.07.45-.436 1.222-2.093 1.326L195.98 21.91c-.01.002-.022.002-.032.002" id="Fill-108" fill="#404041"/><path d="M209.095 27.124c-.867 0-1.763-.385-2.484-1.106-.585-.587-.948-1.29-1.063-1.997-1.656 1.483-3.847 2.31-6.114 2.255-.277-.008-.494-.24-.485-.515.01-.276.216-.475.516-.485 2.477.086 4.876-1.08 6.36-3.016.156-.203.44-.257.657-.123.22.133.303.408.194.64-.446.947.068 1.956.644 2.533.577.58 1.587 1.095 2.534.648.303-.143.585-.352.884-.574.265-.197.53-.392.817-.553 1.39-.783 3.19-.677 4.482.27.223.162.27.475.108.698-.163.222-.474.27-.7.107-.962-.705-2.36-.79-3.4-.203-.25.14-.48.314-.71.485-.325.242-.66.49-1.056.676-.373.176-.774.26-1.182.26" id="Fill-109" fill="#404041"/><path d="M231.965 25.942c-.018 0-.034 0-.052-.002-2.964-.3-5.975-.354-8.943-.16-.313.024-.514-.192-.533-.466-.017-.277.19-.514.466-.533 3.026-.198 6.09-.143 9.112.165.274.028.474.273.446.548-.024.257-.242.45-.495.45" id="Fill-110" fill="#404041"/><path d="M208.22 34.542c-1.003 0-2.14-.232-3.385-.698-.27-.102-.54-.207-.81-.314-1.57-.614-3.2-1.25-4.756-.947-.27.05-.534-.125-.587-.396-.052-.272.125-.534.396-.586 1.846-.357 3.606.333 5.31 1 .265.104.53.208.795.307 1.623.607 3.858 1.09 5.295-.062.214-.172.53-.138.703.077.172.215.138.53-.078.702-.76.61-1.736.918-2.886.918" id="Fill-111" fill="#404041"/><path d="M234.9 34.99h-.005l-9.966-.118c-2.988-.036-6.372-.076-9.356-1.38-.253-.11-.368-.406-.258-.66.11-.252.41-.365.66-.257 2.796 1.224 6.074 1.263 8.964 1.297l9.967.118c.277.003.497.23.494.506-.002.275-.225.494-.5.494" id="Fill-112" fill="#404041"/><path d="M218.855 41.835c-.12 0-.238-.042-.334-.128-.96-.86-2.49-.633-3.97-.41l-.645.093c-1.095.153-2.753.016-3.81-.842-.315-.254-.552-.555-.706-.893-2.213 1.48-5.082 2-7.66 1.36-.27-.066-.432-.337-.366-.605.067-.267.336-.43.606-.365 2.528.627 5.365.01 7.403-1.614.145-.115.34-.14.512-.067.17.075.284.237.3.42.028.395.205.718.538.99.76.614 2.078.754 3.048.626l.63-.092c1.63-.246 3.478-.523 4.79.655.204.185.222.5.037.706-.098.11-.235.165-.372.165" id="Fill-113" fill="#404041"/><path d="M240.91 42c-.017 0-.033 0-.05-.002-5.613-.54-11.315-1.047-16.947-1.506-.274-.022-.48-.263-.457-.54.022-.273.26-.472.54-.456 5.636.46 11.342.966 16.96 1.506.274.026.477.27.45.546-.025.26-.243.452-.497.452" id="Fill-114" fill="#404041"/><path d="M250.838 73.7c-.04 0-.082 0-.122-.003-.775-.036-1.555-.547-1.943-1.27-.32-.603-.322-1.25-.003-1.778.142-.238.452-.312.685-.17.237.142.313.45.17.685-.18.3-.06.623.03.79.224.417.68.724 1.107.744 1.024.037 1.926-.86 2.36-1.404.53-.66 1.222-1.542 2.253-1.358.306.054.552.198.77.324.084.05.17.1.26.142.452.212 1.018.17 1.606.107 3.277-.36 6.496-1.15 9.567-2.344.494-.192 1.317-.51 2.038-.12.592.32.808.948.98 1.45.048.138.093.273.147.402.288.684.974 1.182 1.835 1.332.856.152 1.673-.088 2.176-.635.187-.203.505-.218.706-.03.202.186.216.502.03.706-.733.8-1.888 1.156-3.085.945-1.198-.208-2.164-.93-2.585-1.93-.062-.15-.116-.306-.17-.463-.134-.39-.26-.76-.512-.897-.288-.156-.75 0-1.2.173-3.15 1.225-6.455 2.036-9.818 2.407-.705.077-1.452.126-2.14-.194-.115-.054-.227-.12-.34-.184-.165-.097-.31-.18-.44-.203-.434-.08-.884.482-1.28.977-.936 1.172-2.02 1.8-3.082 1.8" id="Fill-115" fill="#404041"/><path d="M257.358 78.867c-.955 0-1.91-.215-2.766-.634l-.192-.096c-.31-.157-.596-.303-.86-.286-.22.02-.44.163-.7.33-.16.1-.32.202-.485.284-.692.343-1.527.336-2.293-.02-.764-.354-1.31-.987-1.496-1.734-.066-.27.097-.54.365-.606.27-.066.54.095.607.364.11.446.465.845.946 1.068.484.225 1.02.235 1.428.03.135-.065.263-.148.39-.23.323-.207.69-.442 1.154-.48.536-.048.997.185 1.4.39l.178.09c1.143.56 2.502.685 3.734.34.265-.074.543.08.616.347.074.265-.08.542-.347.616-.544.15-1.11.227-1.677.227" id="Fill-116" fill="#404041"/><path d="M254.077 82.84c-2.38 0-4.757-.588-6.853-1.71-.244-.13-.335-.434-.204-.678.13-.244.435-.337.676-.204 2.48 1.327 5.38 1.848 8.167 1.47.27-.046.526.154.563.428.037.274-.155.526-.428.563-.637.086-1.28.13-1.92.13" id="Fill-117" fill="#404041"/><path d="M257.928 88.8c-.02 0-.04-.002-.06-.004l-10.475-1.215c-.274-.03-.47-.28-.44-.554.033-.274.284-.466.556-.44l10.474 1.216c.275.032.47.28.44.554-.03.255-.246.443-.496.443" id="Fill-118" fill="#404041"/><path d="M397.27 81.332c-.476 0-.955-.046-1.426-.14-.272-.054-.448-.318-.393-.588.056-.273.328-.45.59-.393 1.862.375 3.928-.156 5.38-1.386.152-.127.363-.155.54-.07.178.086.29.267.284.464-.004.144.043.18.07.203.207.163.908.237 2.196-.1 1.348-.352 2.795-.147 4.19.05 1.848.26 3.59.505 4.734-.633.193-.193.51-.195.707.002.195.195.195.51 0 .706-1.496 1.49-3.572 1.198-5.58.914-1.3-.185-2.643-.373-3.798-.072-1.477.388-2.51.358-3.07-.083-.06-.05-.127-.11-.187-.187-1.24.856-2.732 1.314-4.234 1.314" id="Fill-119" fill="#404041"/><path d="M421.98 81.71c-.12 0-.237-.042-.33-.122-.104-.09-.166-.223-.17-.36l-.067-2.12c-.93.422-1.81.957-2.616 1.592-.217.17-.53.134-.702-.083-.17-.217-.134-.53.083-.702 1.073-.846 2.26-1.524 3.532-2.016.152-.06.32-.04.457.048.135.09.22.24.224.402l.072 2.305 4.41-.483c.274-.03.52.167.55.442.03.275-.167.522-.442.552l-4.946.542c-.018.002-.036.003-.055.003" id="Fill-120" fill="#404041"/><path d="M401.35 88.174c-1.52 0-3.04-.164-4.515-.49-.27-.06-.44-.328-.38-.598.06-.27.323-.437.597-.38 2.705.6 5.57.622 8.286.065.268-.05.535.12.59.39.055.27-.118.535-.39.59-1.37.282-2.78.424-4.19.424" id="Fill-121" fill="#404041"/><path d="M411.008 87.192c-.24 0-.452-.173-.492-.42-.045-.27.14-.528.412-.573 3.98-.655 8.034-.802 12.05-.434.274.025.477.268.452.544-.025.274-.277.465-.544.452-3.93-.36-7.9-.217-11.796.423-.028.005-.055.007-.082.007" id="Fill-122" fill="#404041"/><path d="M407.357 94.098c-.32 0-.617-.03-.878-.097-.404-.103-.66-.284-.824-.468-3.54-.033-7.145.057-10.688.266-.28.025-.513-.194-.53-.47-.015-.275.195-.512.47-.528 3.652-.217 7.354-.31 11.02-.265.19.002.363.113.445.286.053.114.223.178.356.212 1.16.302 3.888-.51 4.75-1.13 1.8-1.3 4-.84 6.124-.403 1.88.39 3.657.756 5.142 0 .247-.123.548-.028.673.218s.027.548-.22.673c-1.796.918-3.83.497-5.8.09-2-.415-3.89-.805-5.335.233-.8.577-3.048 1.385-4.708 1.385" id="Fill-123" fill="#404041"/><path d="M294.434 111.265h-.005c-.835-.008-1.67-.02-2.506-.036-.276-.006-.495-.235-.49-.51.004-.274.228-.49.5-.49h.01c.83.014 1.662.027 2.494.035.277.003.498.228.496.504-.003.274-.226.495-.5.495" id="Fill-124" fill="#404041"/><path d="M300.44 111.245c-.273 0-.497-.22-.5-.492-.004-.276.216-.504.492-.508 1.963-.03 3.978-.086 5.99-.168.272 0 .51.204.52.48.01.276-.204.508-.48.52-2.02.08-4.044.138-6.015.168h-.008" id="Fill-125" fill="#404041"/><path d="M312.44 110.76c-.26 0-.48-.202-.5-.466-.016-.276.192-.514.467-.532.67-.044 1.342-.09 2.013-.14l-.063-2.02c-.007-.277.21-.507.485-.516h.015c.27 0 .492.214.5.484l.078 2.5c.007.267-.196.494-.463.514-.832.062-1.666.12-2.498.176h-.035" id="Fill-126" fill="#404041"/><path d="M314.717 103.524c-.27 0-.49-.214-.5-.484l-.14-4.562c-.008-.276.21-.506.485-.515.294.014.506.21.515.485l.14 4.56c.008.277-.21.508-.485.516h-.015zm-.28-9.124c-.27 0-.49-.213-.5-.484l-.14-4.562c-.007-.276.21-.506.486-.515.3.025.506.208.515.484l.14 4.56c.007.277-.21.508-.485.516h-.016z" id="Fill-127" fill="#404041"/><path d="M314.156 85.277c-.27 0-.49-.213-.5-.484l-.076-2.5c-.004-.136.048-.27.144-.365.094-.096.222-.15.356-.15h.008c.83.014 1.662.018 2.488.012h.004c.274 0 .498.222.5.496.002.276-.22.502-.496.504-.666.005-1.327.002-1.988-.005l.06 1.977c.008.276-.21.507-.484.515h-.016" id="Fill-128" fill="#404041"/><path d="M319.534 82.73c-.268 0-.49-.214-.5-.484-.01-.276.207-.508.483-.517.98-.036 1.96-.082 2.937-.144.27-.027.514.192.53.468.018.275-.192.512-.467.53-.99.062-1.976.11-2.965.145h-.018" id="Fill-129" fill="#404041"/><path d="M325.43 82.358c-.254 0-.472-.195-.496-.454-.026-.275.177-.518.452-.544.826-.076 1.652-.16 2.476-.254.273-.026.522.165.554.44.03.274-.166.522-.44.554-.832.094-1.664.18-2.498.256l-.047.002" id="Fill-130" fill="#404041"/><path d="M152.635 181.625c-.225 0-.43-.152-.486-.38-.067-.267.096-.54.365-.605 1.622-.403 3.275-.762 4.913-1.07.268-.05.532.128.583.4.05.272-.127.533-.4.584-1.618.302-3.252.658-4.855 1.056-.04.01-.08.015-.12.015zm9.823-1.838c-.248 0-.463-.185-.495-.437-.035-.274.16-.524.433-.56 1.66-.21 3.343-.374 5.004-.487.26-.03.514.188.534.465.018.275-.19.514-.465.533-1.643.112-3.307.275-4.95.483-.02.003-.04.004-.062.004zm14.52-.6h-.022c-1.23-.056-2.477-.083-3.708-.083l-.813.003c-.233.022-.502-.218-.505-.495-.003-.275.218-.502.495-.505l.823-.003c1.072 0 2.156.02 3.23.06.034-.24.24-.425.488-.428h.007c.273 0 .496.22.5.494l.005.45c.002.136-.052.27-.152.365-.093.09-.218.14-.348.14zm-.072-5.45c-.273 0-.496-.22-.5-.493l-.065-5c-.003-.276.22-.503.494-.507h.007c.274 0 .497.22.5.494l.066 5c.004.277-.217.503-.493.507h-.007zm-.13-10c-.274 0-.497-.22-.5-.493l-.066-5c-.004-.276.218-.503.493-.507h.007c.273 0 .496.22.5.494l.065 5c.004.277-.216.503-.493.507h-.007zm-.132-10c-.273 0-.496-.218-.5-.492l-.065-5c-.005-.276.217-.503.492-.507h.007c.272 0 .495.22.5.493l.065 5c.003.278-.217.504-.494.508h-.006zm-.13-9.998c-.275 0-.497-.22-.5-.494l-.067-5c-.004-.276.218-.503.493-.507h.007c.274 0 .496.22.5.492l.066 5c.004.277-.217.503-.493.507h-.007zm-.133-10c-.273 0-.495-.22-.5-.493l-.065-5c-.004-.276.218-.503.494-.507h.005c.274 0 .496.22.5.493l.066 5c.005.277-.216.503-.492.507h-.007z" id="Fill-131" fill="#404041"/><path d="M207.868 13.196c-3.504 0-7.057-.053-10.558-.158-.34-.01-.912-.028-1.318-.41-.475-.45-.464-1.136-.458-1.505l.152-9.946c.003-.274.226-.492.5-.492l32.178.153c.242 0 .448.175.49.413.635 3.586.793 7.24.472 10.865-.02.247-.22.44-.468.455-6.954.415-14.016.626-20.99.626zm-11.19-11.51l-.144 9.454c-.006.32.008.632.144.76.12.113.393.13.662.138 10.298.308 20.745.16 31.026-.44.254-3.257.11-6.537-.426-9.762l-31.262-.15z" id="Fill-132" fill="#404041"/><path d="M125.626 189.258c-.45 0-.963-.026-1.39-.33-.764-.546-.745-1.602-.735-2.11l.12-6.442c.01-.394.02-1.054.457-1.516.453-.48 1.136-.512 1.544-.53 6.54-.307 13.19-.173 19.714.398.235.02.425.204.452.44.383 3.232.072 6.584-.897 9.693-.067.21-.26.35-.478.352l-18.74.046h-.046zm6.873-10.09c-2.27 0-4.567.054-6.832.16-.348.016-.7.047-.864.22-.158.166-.177.51-.183.848l-.12 6.443c-.01.51.02 1.06.318 1.273.187.134.49.145.808.145v.5l.044-.5 18.37-.045c.807-2.746 1.08-5.677.798-8.525-4.088-.344-8.237-.52-12.34-.52z" id="Fill-133" fill="#404041"/><path d="M132.97 186.43c-.025 0-.05 0-.074-.005-.205-.03-.37-.184-.415-.385l-.717-3.218c-.322.065-.664.397-1.11.858-.154.162-.308.322-.464.464-.674.622-1.84.585-2.432.14-.42-.317-.534-.81-.296-1.286.124-.25.428-.347.67-.224.248.124.347.425.224.67-.015.032-.016.046-.016.046.013.002.14.083.37.112.31.04.634-.04.803-.195.14-.13.28-.274.42-.42.608-.63 1.363-1.41 2.38-1.112.173.053.305.193.345.37l.568 2.537c1.37-1.362 3.638-1.8 5.378-.888.244.13.338.43.21.675-.128.245-.433.337-.675.21-1.592-.833-3.85-.17-4.735 1.397-.09.158-.257.254-.435.254" id="Fill-134" fill="#404041"/><path d="M361.02 142.726c-.05 0-.105-.01-.157-.026-.18-.06-.31-.22-.337-.407-.248-1.83-1.32-3.522-2.87-4.525-.185-.12-.27-.345-.21-.556.06-.21.25-.358.47-.364l2.82-.067c-.01-.538.04-1.05.208-1.498-.782-3.99-.91-8.058-.377-12.092.037-.276.293-.468.562-.43.272.035.466.287.43.56-.525 3.975-.392 7.984.394 11.914.02.102.01.208-.034.303-.148.328-.193.75-.184 1.22l2.685-.064c.283.003.506.212.513.49.006.274-.212.504-.49.51l-2.63.063c.03.235.062.475.094.712.21 1.544.426 3.14-.53 4.11-.095.096-.224.148-.356.148zm-1.71-4.91c.775.752 1.384 1.674 1.776 2.68.01-.577-.08-1.24-.17-1.893-.037-.274-.074-.55-.106-.824l-1.5.035z" id="Fill-135" fill="#404041"/><path d="M222.58 100.72c-.277 0-.544-.08-.787-.24-.345-.223-.538-.55-.708-.84l-.052-.087c-.902-1.515-2.395-2.645-4.097-3.1-.198-.055-.343-.224-.367-.43-.023-.203.08-.4.263-.497 1.432-.755 3.034-1.6 4.845-1.336 2.29-7.343 5.903-16.2 13.443-20.744 2.544-1.533 5.65-2.616 9.232-3.22.267-.046.53.138.576.41.046.273-.138.53-.41.577-3.457.582-6.446 1.622-8.88 3.09-7.4 4.458-10.908 13.357-13.138 20.612-.077.255-.337.406-.6.338-1.257-.316-2.41.066-3.576.633 1.474.654 2.74 1.762 3.57 3.154l.052.09c.126.215.245.417.394.514.122.08.242.095.39.052.398-.114.884-.63 1.157-1.222.217-.478.63-1.376 1.3-1.877l-1.876-1.153c-.234-.144-.307-.452-.163-.687.146-.236.456-.31.688-.164l2.815 1.73c.203.125.29.374.208.598-.08.223-.3.355-.542.325-.65-.104-1.148.83-1.52 1.645-.306.665-.956 1.527-1.786 1.767-.146.042-.29.063-.43.063" id="Fill-136" fill="#404041"/><path d="M127.507 102.696c-.094 0-.188-.026-.27-.08-.14-.09-.226-.242-.23-.41-.02-.967.76-1.69 1.518-2.39.38-.353.77-.712.997-1.06l-3.004-2.523c-.212-.176-.24-.492-.062-.704.178-.213.493-.24.704-.062l2.75 2.306c2.184-2.123 5.026-3.633 8.01-4.253 1.89-.393 3.82-.443 5.688-.492l15.12-.396c1.742-.044 3.917-.103 5.717.88.953.52 1.733 1.29 2.487 2.03.85.842 1.662 1.64 2.655 2.03 1.48-.793 3.112-1.3 4.784-1.466.28-.01.52.175.548.45.026.274-.175.52-.45.546-1.4.137-2.77.537-4.032 1.157.03.35.495.6 1.188.934.79.38 1.772.853 1.755 1.898-.004.145-.07.283-.183.377-.112.092-.26.13-.404.105-2.08-.362-4.207-.504-6.317-.41-.185.008-.387-.105-.473-.286-.087-.183-.056-.398.077-.548.73-.82 1.566-1.54 2.48-2.146-.877-.498-1.613-1.222-2.33-1.93-.738-.727-1.433-1.413-2.263-1.866-1.565-.853-3.5-.805-5.214-.758l-15.12.396c-1.823.047-3.708.097-5.51.47-2.75.573-5.375 1.952-7.41 3.892l-.007.052 2.884 2.42c.167.14.223.372.14.573-.082.202-.294.324-.503.308-1.883-.154-3.79.155-5.52.91-.064.03-.132.043-.2.043zm2.786-3.295c-.29.41-.693.783-1.088 1.15-.272.25-.55.507-.767.76 1.104-.36 2.255-.56 3.416-.6l-1.56-1.31zm37.435.737c1.363 0 2.727.092 4.078.274-.174-.1-.382-.202-.616-.315-.633-.305-1.39-.67-1.657-1.342-.662.4-1.286.863-1.857 1.384h.052z" id="Fill-137" fill="#404041"/><path d="M332.934 63.738h57.5v55h-57.5v-55z" id="Fill-138" fill="#F1F1F2"/><path d="M390.434 119.238h-57.5c-.277 0-.5-.223-.5-.5v-55c0-.276.223-.5.5-.5h57.5c.276 0 .5.224.5.5v55c0 .277-.224.5-.5.5zm-57-1h56.5v-54h-56.5v54z" id="Fill-139" fill="#404041"/><path d="M317.725 183.914c-.09 0-.18-.023-.26-.072-.236-.144-.31-.45-.168-.688 1.56-2.574 4.118-4.524 7.013-5.35.268-.08.543.08.618.344.076.264-.078.542-.344.617-2.655.758-5 2.547-6.432 4.91-.094.153-.26.24-.427.24" id="Fill-140" fill="#404041"/><path d="M413.93 196.237c-.03 0-.06-.003-.09-.007-.272-.05-.453-.31-.404-.58.722-4.053-3.542-11.077-7.375-13.563-.116-.076-.195-.196-.22-.332-.024-.137.01-.278.093-.388.79-1.052 1.327-1.263 1.95-1.43.227-.06.43-.116.67-.293-1.403.023-2.79.228-4.142.612.502 1.876 1.322 4.522 2.94 4.577.276.01.492.24.483.517-.01.276-.212.507-.517.483-2.502-.085-3.436-3.654-3.994-5.786-.067-.258.078-.527.332-.607 1.957-.62 3.992-.88 6.04-.774.185.01.348.118.427.284.08.165.062.362-.046.51-.776 1.064-1.312 1.276-1.933 1.443-.333.09-.63.17-1.077.66 3.983 2.898 8.13 9.92 7.357 14.262-.043.242-.254.412-.49.412" id="Fill-141" fill="#404041"/><path d="M344.998 88.238h-12c-.276 0-.5-.223-.5-.5v-12c0-.276.224-.5.5-.5h12c.276 0 .5.224.5.5v12c0 .277-.224.5-.5.5zm-11.5-1h11v-11h-11v11z" id="Fill-142" fill="#404041"/><path d="M390.158 76.238h-57.16c-.276 0-.5-.223-.5-.5V64.07c0-.275.224-.5.5-.5h57.16c.277 0 .5.225.5.5V75.74c0 .277-.223.5-.5.5zm-56.66-1h56.16V64.57h-56.16V75.24z" id="Fill-143" fill="#404041"/><path d="M344.998 119.238h-12c-.276 0-.5-.223-.5-.5v-31c0-.276.224-.5.5-.5h12c.276 0 .5.224.5.5v31c0 .277-.224.5-.5.5zm-11.5-1h11v-30h-11v30z" id="Fill-144" fill="#404041"/><path d="M355.746 87.678h-6.11c-.276 0-.5-.224-.5-.5v-6.11c0-.275.224-.5.5-.5h6.11c.276 0 .5.225.5.5v6.11c0 .276-.224.5-.5.5zm-5.61-1h5.11V81.57h-5.11v5.108z" id="Fill-145" fill="#404041"/><path d="M361.714 87.678h-6.11c-.276 0-.5-.224-.5-.5v-6.11c0-.275.224-.5.5-.5h6.11c.276 0 .5.225.5.5v6.11c0 .276-.224.5-.5.5zm-5.61-1h5.11V81.57h-5.11v5.108z" id="Fill-146" fill="#404041"/><path d="M367.73 87.678h-6.11c-.276 0-.5-.224-.5-.5v-6.11c0-.275.224-.5.5-.5h6.11c.275 0 .498.225.498.5v6.11c0 .276-.223.5-.5.5zm-5.61-1h5.108V81.57h-5.108v5.108z" id="Fill-147" fill="#404041"/><path d="M367.588 111.645h-18.045c-.276 0-.5-.224-.5-.5V87.177c0-.277.224-.5.5-.5h18.045c.276 0 .5.223.5.5v23.966c0 .277-.224.5-.5.5zm-17.545-1h17.045V87.676h-17.045v22.967z" id="Fill-148" fill="#404041"/><path d="M381.122 102.997h-13.44c-.277 0-.5-.224-.5-.5v-15.6c0-.278.223-.5.5-.5h13.44c.276 0 .5.222.5.5v15.6c0 .276-.224.5-.5.5zm-12.94-1h12.44V87.395h-12.44v14.602z" id="Fill-149" fill="#404041"/><path d="M364.91 98.29h-13.064c-.298 0-.538-.24-.538-.54v-2.725c0-.297.24-.538.538-.538h13.063c.297 0 .537.24.537.538v2.726c0 .3-.24.54-.538.54zm-12.526-1.077h11.987v-1.65h-11.986v1.65z" id="Fill-150" fill="#404041"/><path d="M364.91 102.894h-13.064c-.298 0-.538-.24-.538-.538V99.63c0-.297.24-.537.538-.537h13.063c.297 0 .537.24.537.538v2.726c0 .298-.24.538-.538.538zm-12.526-1.076h11.987v-1.65h-11.986v1.65z" id="Fill-151" fill="#404041"/><path d="M364.91 107.312h-13.064c-.298 0-.538-.24-.538-.54v-2.724c0-.298.24-.538.538-.538h13.063c.297 0 .537.24.537.538v2.725c0 .298-.24.54-.538.54zm-12.526-1.077h11.987v-1.65h-11.986v1.65z" id="Fill-152" fill="#404041"/><path d="M339.063 73.148c-1.825 0-3.31-1.485-3.31-3.31s1.485-3.31 3.31-3.31c1.826 0 3.31 1.485 3.31 3.31s-1.484 3.31-3.31 3.31zm0-5.544c-1.23 0-2.234 1.002-2.234 2.234 0 1.23 1.002 2.234 2.233 2.234 1.232 0 2.235-1.003 2.235-2.234 0-1.232-1.003-2.234-2.235-2.234z" id="Fill-153" fill="#404041"/><path d="M339.063 95.94c-1.54 0-2.793-1.253-2.793-2.794 0-1.54 1.252-2.794 2.793-2.794 1.54 0 2.794 1.254 2.794 2.794s-1.253 2.794-2.794 2.794zm0-4.51c-.947 0-1.717.77-1.717 1.716 0 .947.77 1.717 1.717 1.717.948 0 1.718-.77 1.718-1.717 0-.947-.77-1.717-1.717-1.717z" id="Fill-154" fill="#404041"/><path d="M339.063 102.52c-1.54 0-2.793-1.254-2.793-2.795 0-1.54 1.252-2.793 2.793-2.793 1.54 0 2.794 1.253 2.794 2.793 0 1.54-1.253 2.794-2.794 2.794zm0-4.512c-.947 0-1.717.77-1.717 1.717 0 .947.77 1.717 1.717 1.717.948 0 1.718-.77 1.718-1.717 0-.947-.77-1.717-1.717-1.717z" id="Fill-155" fill="#404041"/><path d="M339.063 109.098c-1.54 0-2.793-1.253-2.793-2.794 0-1.54 1.252-2.794 2.793-2.794 1.54 0 2.794 1.253 2.794 2.794 0 1.54-1.253 2.794-2.794 2.794zm0-4.512c-.947 0-1.717.77-1.717 1.718 0 .947.77 1.717 1.717 1.717.948 0 1.718-.77 1.718-1.716 0-.948-.77-1.718-1.717-1.718z" id="Fill-156" fill="#404041"/><path d="M360.13 92.313c-.12 0-.234-.016-.34-.05-.244-.073-.44-.236-.555-.454-.03-.058-.05-.114-.066-.164-.276.013-.55.11-.84.21-.442.155-.944.334-1.498.252-.145-.02-.29-.058-.436-.098-.175-.048-.358-.1-.438-.065-.26.123-.732.354-1.118-.014-.197-.19-.23-.428-.243-.53l-.005-.036c-.454.198-.924.363-1.405.49-.29.08-.583-.094-.66-.38-.075-.29.096-.584.383-.66.66-.176 1.296-.428 1.892-.75.163-.087.36-.083.52.006.162.092.265.26.274.446.006.134.015.27.028.405.394-.132.76-.03 1.057.052.1.027.202.056.302.07.3.042.636-.078.994-.202.39-.138.817-.295 1.317-.274.103.004.42.016.66.264.132.14.186.295.217.4.045-.005.104-.02.16-.05l.158-.093c.264-.158.623-.376 1.072-.31.26.036.464.158.627.256.068.04.17.103.208.11.003-.006.072-.045.117-.07.61-.33 1.242-.413 1.826-.266.267.066.44.324.403.597-.037.274-.26.467-.552.463l-.47-.015c-.053 0-.104-.01-.152-.027-.16.023-.317.073-.46.15-.195.11-.377.214-.613.238-.362.043-.652-.132-.86-.256-.075-.045-.18-.108-.225-.114-.064-.02-.24.093-.37.17l-.195.112c-.227.123-.477.188-.714.188" id="Fill-157" fill="#404041"/><path d="M372.05 90.622c-.025 0-.05 0-.075-.003-.244-.02-.46-.133-.608-.32-.086-.11-.134-.225-.165-.32l-.966.19c-.288.06-.575-.13-.634-.422-.06-.29.13-.575.42-.634l1.045-.21c.148-.028.492-.1.795.12.186.133.268.312.315.454.015-.01.03-.024.046-.038.288-.267.746-.682 1.322-.486.137.046.24.116.313.168.125.075.285.077.39.08.973.014 1.944.016 2.917 0h.008c.294 0 .534.236.538.53.006.298-.23.543-.53.547-.984.015-1.966.014-2.95-.003-.21-.003-.53-.007-.825-.17-.05-.027-.104-.062-.157-.098-.036-.01-.194.128-.275.203-.12.11-.478.41-.922.41" id="Fill-158" fill="#404041"/><path d="M373.31 92.885c-.05 0-.098-.002-.148-.008-.27-.032-.474-.26-.475-.533v-.138c-.818.164-1.643.31-2.46.437-.29.042-.57-.156-.615-.45-.045-.295.157-.57.45-.615 1.014-.156 2.04-.345 3.046-.558.158-.034.325.005.45.106.127.102.2.254.2.416l.002.082.11-.057c1.01-.5 2.255-.48 3.25.05.262.14.36.467.222.73-.142.262-.467.362-.73.22-.694-.37-1.562-.38-2.263-.035l-.13.067c-.248.128-.55.285-.91.285" id="Fill-159" fill="#404041"/><path d="M373.425 96.31c-.284 0-.568-.017-.84-.04l-1.398-.113c-.438-.036-1.46-.12-1.84-.96-.122-.27 0-.59.27-.713.268-.123.59-.003.712.27.116.262.74.312.944.33l1.397.112c.834.07 1.683.096 2.17-.37l.134-.136c.3-.305.8-.82 1.458-.546.23.094.38.266.48.38l.49.56c.196.223.172.564-.05.76-.225.195-.565.173-.76-.052l-.49-.56c-.03-.034-.077-.086-.096-.1.007.036-.16.208-.26.31l-.162.162c-.595.57-1.38.707-2.16.707" id="Fill-160" fill="#404041"/><path d="M371.034 99.473c-.566 0-1.05-.177-1.396-.524-.21-.21-.21-.552 0-.762.21-.21.55-.21.76 0 .38.38 1.197.14 1.437.054.135-.047.27-.1.405-.15.553-.216 1.172-.46 1.862-.383.122.013.242.036.36.06.117.024.232.05.35.052h.007c.106 0 .212-.02.32-.04.106-.017.213-.035.32-.045.63-.057 1.27.145 1.75.556.226.193.253.533.06.76-.194.227-.533.252-.76.058-.257-.22-.615-.327-.95-.3-.08.007-.16.02-.24.035-.172.03-.32.046-.518.053-.188-.002-.37-.036-.554-.073-.087-.017-.175-.036-.264-.046-.416-.045-.875.13-1.355.315-.148.056-.293.113-.44.165-.41.142-.798.213-1.156.213" id="Fill-161" fill="#404041"/><path d="M345.33 70.965c-.043 0-.084 0-.126-.003-.862-.038-1.617-.517-1.922-1.22-.118-.272.007-.59.28-.708.274-.117.59.008.71.28.136.318.54.552.98.572.413.02.87-.11 1.442-.408.237-.126.428-.226.653-.287.29-.076.577-.07.842-.057 1.055.05 2.116.177 3.152.374l.24.047c.737.143 1.43.28 2.067.117.29-.074.58.1.655.39.074.287-.1.58-.388.654-.868.224-1.717.057-2.54-.103l-.236-.045c-.987-.188-1.997-.308-3.002-.356-.196-.01-.372-.017-.513.022-.107.03-.23.094-.36.163-.517.267-1.19.57-1.936.57" id="Fill-162" fill="#404041"/><path d="M374.572 70.012c-.2 0-.493-.04-.718-.277-.025-.025-.047-.053-.07-.083-.245 0-.5.02-.763.05-.527.06-1.124.13-1.708-.094-.28-.105-.418-.417-.312-.694.104-.277.42-.42.694-.312.34.13.76.082 1.205.03.322-.035.656-.068 1.002-.054.158.01.362.04.544.19.07.057.117.117.153.166.01 0 .027 0 .046-.003.606-.045 1.208-.163 1.79-.35l.17-.055c.297-.098.634-.21 1.002-.233.28-.015.552.206.57.504.02.296-.206.552-.503.57-.228.015-.472.096-.73.182l-.18.058c-.662.212-1.347.346-2.037.4-.04.002-.092.006-.156.006" id="Fill-163" fill="#404041"/><path d="M381.342 70.286h-.047c-.462-.01-.93-.258-1.193-.63-.215-.3-.273-.65-.165-.984.09-.276.378-.42.66-.335.28.082.437.385.365.665.016.06.18.203.357.207.218-.005.482-.083.75-.175.17-.058.34-.115.513-.157.77-.192 1.524-.088 2.255.01.61.084 1.187.162 1.725.062.3-.052.574.14.627.434.053.293-.14.573-.433.627-.71.128-1.397.035-2.064-.055-.66-.09-1.283-.174-1.85-.032-.144.035-.283.084-.423.132-.32.108-.68.23-1.078.23" id="Fill-164" fill="#404041"/><path d="M332.934 151.405h57.5v55h-57.5v-55z" id="Fill-165" fill="#F1F1F2"/><path d="M390.434 206.904h-57.5c-.277 0-.5-.223-.5-.5v-55c0-.276.223-.5.5-.5h57.5c.276 0 .5.224.5.5v55c0 .277-.224.5-.5.5zm-57-1h56.5v-54h-56.5v54z" id="Fill-166" fill="#404041"/><path d="M344.998 175.904h-12c-.276 0-.5-.223-.5-.5v-12c0-.276.224-.5.5-.5h12c.276 0 .5.224.5.5v12c0 .277-.224.5-.5.5zm-11.5-1h11v-11h-11v11z" id="Fill-167" fill="#404041"/><path d="M390.158 163.904h-57.16c-.276 0-.5-.223-.5-.5v-11.666c0-.276.224-.5.5-.5h57.16c.277 0 .5.224.5.5v11.666c0 .277-.223.5-.5.5zm-56.66-1h56.16v-10.666h-56.16v10.666z" id="Fill-168" fill="#404041"/><path d="M344.998 206.904h-12c-.276 0-.5-.223-.5-.5v-31c0-.276.224-.5.5-.5h12c.276 0 .5.224.5.5v31c0 .277-.224.5-.5.5zm-11.5-1h11v-30h-11v30z" id="Fill-169" fill="#404041"/><path d="M339.063 160.815c-1.825 0-3.31-1.485-3.31-3.31 0-1.826 1.485-3.312 3.31-3.312 1.826 0 3.31 1.486 3.31 3.31 0 1.827-1.484 3.312-3.31 3.312zm0-5.546c-1.23 0-2.234 1.003-2.234 2.234 0 1.232 1.002 2.235 2.233 2.235 1.232 0 2.235-1.004 2.235-2.236 0-1.23-1.003-2.235-2.235-2.235z" id="Fill-170" fill="#404041"/><path d="M339.063 183.606c-1.54 0-2.793-1.252-2.793-2.793 0-1.542 1.252-2.794 2.793-2.794 1.54 0 2.794 1.25 2.794 2.793 0 1.54-1.253 2.793-2.794 2.793zm0-4.51c-.947 0-1.717.77-1.717 1.717 0 .947.77 1.717 1.717 1.717.948 0 1.718-.77 1.718-1.717 0-.948-.77-1.718-1.717-1.718z" id="Fill-171" fill="#404041"/><path d="M339.063 190.186c-1.54 0-2.793-1.253-2.793-2.794 0-1.54 1.252-2.794 2.793-2.794 1.54 0 2.794 1.253 2.794 2.794 0 1.54-1.253 2.794-2.794 2.794zm0-4.512c-.947 0-1.717.77-1.717 1.718 0 .947.77 1.717 1.717 1.717.948 0 1.718-.77 1.718-1.718s-.77-1.718-1.717-1.718z" id="Fill-172" fill="#404041"/><path d="M339.063 196.765c-1.54 0-2.793-1.253-2.793-2.794 0-1.54 1.252-2.793 2.793-2.793 1.54 0 2.794 1.253 2.794 2.794 0 1.542-1.253 2.795-2.794 2.795zm0-4.512c-.947 0-1.717.77-1.717 1.718s.77 1.72 1.717 1.72c.948 0 1.718-.772 1.718-1.72 0-.947-.77-1.717-1.717-1.717z" id="Fill-173" fill="#404041"/><path d="M345.33 158.632c-.042 0-.084 0-.125-.003-.864-.04-1.62-.52-1.923-1.22-.118-.273.007-.59.28-.71.274-.117.59.01.71.28.135.318.54.552.98.573.43.018.87-.112 1.442-.41.227-.12.422-.222.653-.285.29-.077.577-.07.842-.058 1.06.052 2.12.177 3.152.373l.237.046c.736.144 1.433.282 2.07.118.29-.075.58.1.655.388.074.288-.1.58-.388.655-.87.226-1.72.058-2.545-.104l-.232-.045c-.983-.186-1.993-.305-3.002-.354-.196-.01-.372-.015-.513.023-.11.03-.238.096-.373.167-.753.392-1.353.565-1.923.565" id="Fill-174" fill="#404041"/><path d="M374.566 157.68c-.197 0-.488-.04-.712-.278-.025-.025-.047-.053-.07-.083-.252-.013-.503.02-.763.05-.525.06-1.124.127-1.708-.096-.28-.105-.418-.417-.312-.694.104-.278.42-.42.694-.31.34.128.76.08 1.206.03.322-.036.656-.07 1.002-.055.14.007.355.034.544.19.07.057.117.117.152.165.012 0 .027 0 .045-.003.61-.046 1.21-.163 1.794-.35l.164-.054c.3-.1.64-.212 1.008-.234.28-.023.552.205.57.503.02.296-.206.552-.503.57-.23.015-.476.096-.736.183l-.175.057c-.662.212-1.348.346-2.038.398-.04.004-.094.01-.16.01" id="Fill-175" fill="#404041"/><path d="M381.34 157.953h-.045c-.463-.012-.932-.26-1.194-.63-.213-.302-.27-.652-.163-.984.09-.277.373-.418.66-.336.278.082.437.385.365.665.016.06.18.2.358.206.252.003.48-.082.75-.174.17-.058.34-.116.513-.158.77-.19 1.526-.088 2.255.01.61.085 1.187.163 1.725.063.3-.05.574.142.627.434.053.294-.14.574-.433.628-.708.127-1.398.034-2.064-.056-.66-.09-1.28-.176-1.85-.033-.145.034-.284.083-.424.13-.32.11-.68.233-1.08.233" id="Fill-176" fill="#404041"/><path d="M366.768 181.57H349.6c-.276 0-.5-.222-.5-.5v-13.666c0-.276.224-.5.5-.5h17.168c.276 0 .5.224.5.5v13.667c0 .278-.224.5-.5.5zm-16.667-1h16.168v-12.666H350.1v12.667z" id="Fill-177" fill="#404041"/><path d="M383.85 181.57h-17.166c-.277 0-.5-.222-.5-.5v-13.666c0-.276.223-.5.5-.5h17.167c.277 0 .5.224.5.5v13.667c0 .278-.223.5-.5.5zm-16.666-1h16.167v-12.666h-16.166v12.667z" id="Fill-178" fill="#404041"/><path d="M374.38 172.533c-.06 0-.122-.004-.185-.012-.367-.048-.718-.293-.894-.626l-.025-.048c-.708.133-1.43.216-2.154.245-.252.025-.507-.203-.518-.48-.01-.275.204-.507.48-.52.852-.032 1.702-.146 2.528-.335.19-.045.384.025.504.178.12.15.142.358.056.53.015-.016.09.058.157.066.198.03.456-.1.743-.254.326-.175.816-.433 1.362-.353.243.037.444.134.62.218l.1.048c1.082.5 2.447.35 3.394-.373.22-.167.532-.127.7.094.17.22.126.532-.093.7-1.233.942-3.008 1.137-4.42.487l-.11-.054c-.128-.06-.247-.117-.343-.132-.198-.027-.462.1-.736.246-.283.154-.697.377-1.163.377" id="Fill-179" fill="#404041"/><path d="M372.274 175.78c-.233 0-.442-.166-.49-.404-.053-.27.124-.534.395-.587.875-.174 1.71-.494 2.478-.954.206-.122.47-.083.628.094.11.12.15.284.118.436.088-.007.216-.05.34-.096l.122-.043c.997-.335 2.14-.24 3.067.264.242.133.332.437.2.68-.133.242-.437.33-.68.2-.683-.372-1.532-.445-2.266-.196l-.107.038c-.255.09-.57.203-.93.136-.216-.042-.418-.164-.562-.334-.702.35-1.444.604-2.216.756-.033.006-.065.01-.098.01" id="Fill-180" fill="#404041"/><path d="M376.74 178.012c-.152 0-.332-.028-.5-.13-.115-.07-.21-.174-.273-.296l-3.203-.023c-.276 0-.498-.227-.496-.503.002-.275.225-.496.5-.496h.003l3.69.025c.222 0 .417.15.477.365l.008.034 2.41-.33c.267-.036.524.153.56.427.04.273-.153.525-.427.562l-2.486.34c-.068.01-.16.022-.262.022" id="Fill-181" fill="#404041"/><path d="M367.26 188.018h-.035l-2.774-.2c-1.253-.09-2.508-.178-3.763-.227-1.576-.06-3.17-.06-4.738.01-.162.007-.317-.064-.417-.192-.092-.118-.126-.27-.094-.417l-3.3.252c-.267.02-.517-.186-.538-.46-.02-.276.185-.516.46-.538l3.792-.288c.21-.016.417.107.5.308.042.1.074.21.092.316 1.42-.047 2.856-.044 4.28.01 1.267.052 2.532.14 3.795.23l2.775.2c.275.018.483.257.464.533-.02.263-.24.465-.5.465" id="Fill-182" fill="#404041"/><path d="M376.09 188.13c-.187 0-.384-.024-.577-.098-.263-.098-.504-.307-.638-.57-.46.06-.926.066-1.39.02-.92.42-1.97.56-2.963.395-.272-.045-.457-.302-.412-.574.045-.274.304-.463.575-.412.84.14 1.73.007 2.495-.37.09-.045.19-.06.286-.05.572.074 1.147.05 1.71-.074.17-.04.355.018.476.15.12.133.16.32.108.49.006-.016.05.04.106.06.16.06.404.026.617-.006l2.707-.397c.265-.036.527.15.568.423.04.274-.15.528-.423.568l-2.707.396c-.155.023-.34.05-.54.05" id="Fill-183" fill="#404041"/><path d="M364.188 192.705c-.234 0-.468-.005-.704-.013-.69-.024-1.377-.086-2.065-.15-1.64-.15-3.244-.3-4.808-.618l-.298-.063c-1.063-.22-2.164-.45-3.042-.034-.25.117-.548.013-.666-.236-.12-.25-.012-.548.237-.666 1.183-.562 2.508-.285 3.677-.04l.293.06c1.51.308 3.085.454 4.61.595.757.067 1.426.13 2.097.152 1.922.075 3.836-.16 5.686-.687.22-.065.463.034.574.24l.01.018c1.697-.354 3.482-.402 5.188-.136.272.043.46.298.416.57-.04.275-.31.453-.57.418-1.704-.265-3.494-.195-5.177.203-.217.055-.446-.05-.553-.246-1.603.42-3.248.633-4.906.633" id="Fill-184" fill="#404041"/><path d="M381.857 192.434c-.56 0-1.13-.17-1.443-.554-.486.145-1 .202-1.502.188-.275-.012-.49-.245-.478-.52.012-.277.215-.477.52-.48.508.03 1.05-.073 1.53-.275.148-.062.315-.05.45.03.137.083.227.225.243.383.01.127.377.257.808.223l.06-.005c.073-.092.18-.157.304-.18l1.996-.345c.25-.05.5.112.567.36.067.25-.064.51-.305.6-.818.31-1.675.5-2.548.567-.068.005-.135.007-.203.007" id="Fill-185" fill="#404041"/><path d="M363.802 196.62c-.107 0-.212-.034-.3-.1-.114-.084-.188-.216-.198-.36l-.03-.35c-2.027.397-4.156.42-6.188.063-.35-.06-.79-.284-.98-.635-1.088.095-2.167.464-3.08 1.06-.227.15-.54.09-.69-.144-.15-.23-.087-.54.144-.69 1.197-.785 2.644-1.23 4.076-1.25.163.022.36.1.448.267.055.103.07.22.05.33.054.032.13.065.206.08 2.087.366 4.288.306 6.355-.175.14-.034.29-.002.408.084.12.085.193.218.204.362l.03.36c1.455-.253 2.933-.287 4.405-.1.274.036.468.287.433.56-.035.274-.29.47-.56.433-1.547-.198-3.103-.134-4.63.194-.033.006-.068.01-.103.01" id="Fill-186" fill="#404041"/><path d="M380.713 197.437c-.213 0-.36-.093-.447-.168-.19-.166-.226-.378-.246-.493-.028-.137-.324-.22-.595-.167-.14.03-.28.075-.417.12-.33.105-.704.23-1.128.18-.43-.043-.847-.34-1.043-.737-1 .362-2.092.488-3.147.357-.273-.034-.468-.283-.434-.557.033-.275.273-.474.557-.435 1.113.136 2.284-.063 3.29-.563.213-.11.47-.05.618.14.147.188.14.452-.015.633.024.01.154.156.277.17.206.014.46-.06.723-.143.17-.053.342-.107.515-.143.657-.136 1.424.08 1.697.674l1.847-1.005c.243-.133.546-.043.678.2.133.242.044.546-.198.678l-2.05 1.118c-.185.102-.346.14-.48.14zm.242-.89l-.426.223.484-.122c0-.004-.013-.05-.06-.102z" id="Fill-187" fill="#404041"/><path d="M367.94 200.404c-.014 0-.03 0-.044-.002l-4.417-.385c-1.633-.144-3.326-.29-4.97-.216-.347.016-.697.042-1.046.067-1.195.086-2.428.176-3.642-.11-.268-.063-.435-.332-.372-.6.063-.268.33-.443.6-.373 1.067.25 2.172.17 3.342.086.36-.026.717-.052 1.074-.067 1.715-.083 3.436.072 5.1.218l4.417.386c.275.025.48.267.454.542-.022.26-.24.456-.497.456" id="Fill-188" fill="#404041"/><path d="M375.108 201.096c-1.072 0-2.145-.16-3.177-.48-.263-.082-.41-.362-.328-.626.082-.262.36-.413.625-.33 2.438.76 5.136.518 7.4-.66.16-.085.35-.075.5.022.424.27.963.35 1.444.213.153-.044.31-.014.433.077.125.09.2.233.206.387 0 .033.003.068.01.1l.263-.06c.273-.068.538.104.6.37.064.27-.103.54-.37.602l-.687.16c-.21.055-.426-.04-.54-.223-.07-.114-.127-.234-.17-.358-.505.04-1.02-.058-1.47-.283-1.476.72-3.106 1.086-4.738 1.086" id="Fill-189" fill="#404041"/><path d="M350.022 180.968c-.158 0-.314-.075-.412-.217-.156-.227-.098-.537.13-.694l8.305-5.716c.76-.524 1.547-1.067 2.14-1.746.29-.332.54-.7.8-1.088.247-.363.493-.726.773-1.062 1.166-1.405 2.83-2.28 4.297-3.05.243-.127.546-.034.674.21.128.245.034.547-.21.675-1.453.762-2.955 1.55-3.993 2.803-.258.31-.485.648-.713.983-.268.397-.545.807-.876 1.185-.675.775-1.514 1.354-2.326 1.914l-8.306 5.716c-.086.06-.186.088-.284.088" id="Fill-190" fill="#404041"/><path d="M366.403 181.14c-.062 0-.126-.013-.186-.038-1.13-.454-1.92-1.356-2.685-2.228l-.378-.428c-2.122-2.357-4.853-4.154-7.494-5.89-2.002-1.318-4.07-2.68-5.9-4.292-.21-.183-.23-.498-.046-.705.182-.208.5-.23.705-.046 1.777 1.566 3.817 2.908 5.79 4.206 2.693 1.772 5.48 3.604 7.687 6.056l.388.44c.718.82 1.398 1.594 2.305 1.96.256.102.38.393.277.65-.078.195-.265.313-.464.313" id="Fill-191" fill="#404041"/></g></g></g></svg>