<?xml version="1.0" encoding="UTF-8" standalone="no"?>
<svg width="156px" height="41px" viewBox="0 0 156 41" version="1.1" xmlns="http://www.w3.org/2000/svg" xmlns:xlink="http://www.w3.org/1999/xlink" xmlns:sketch="http://www.bohemiancoding.com/sketch/ns">
    <!-- Generator: Sketch 3.3.3 (12072) - http://www.bohemiancoding.com/sketch -->
    <title>Crema_logo-03 Copy</title>
    <desc>Created with Sketch.</desc>
    <defs></defs>
    <g id="Crema-Site" stroke="none" stroke-width="1" fill="none" fill-rule="evenodd" sketch:type="MSPage">
        <g id="Crema_logo-03-Copy" sketch:type="MSLayerGroup" transform="translate(0.500000, 0.652344)" fill="#FFFFFF">
            <g id="Group" sketch:type="MSShapeGroup">
                <path d="M29.1289988,38.2694117 C26.6472914,39.4023131 23.8012966,39.9461058 20.5682466,39.9461058 C17.63118,39.9461058 14.921793,39.4702872 12.4173177,38.495992 C9.93561026,37.5216967 7.77265426,36.1622149 5.92844966,34.3948886 C4.10701303,32.6275623 2.67263168,30.5203656 1.62530562,28.0506404 C0.577979554,25.5809152 0.0543165221,22.8846097 0.0543165221,19.9164078 C0.0543165221,16.8802319 0.577979554,14.1386103 1.64807358,11.6688851 C2.69539964,9.19915994 4.1753169,7.11462123 6.04228945,5.36995297 C7.909262,3.64794273 10.094986,2.311119 12.5994613,1.38213979 C15.1039367,0.453160588 17.8133237,0 20.7276223,0 C23.4142413,0 26.0553245,0.475818617 28.6508717,1.42745585 C31.2464189,2.37909309 33.363839,3.76123288 34.980364,5.57387523 L28.7419435,11.7821753 C27.8767611,10.6039578 26.7611312,9.72029461 25.3495178,9.15384388 C23.9606723,8.58739314 22.526291,8.29283876 21.0463737,8.29283876 C19.4298487,8.29283876 17.9499314,8.58739314 16.6066219,9.17650191 C15.2633124,9.76561067 14.1021466,10.5812997 13.1458923,11.6009111 C12.1668701,12.6431804 11.4155275,13.866714 10.8918645,15.2715118 C10.3454335,16.6763096 10.094986,18.2170556 10.094986,19.8937498 C10.094986,21.61576 10.3682015,23.1791641 10.8918645,24.6066199 C11.4382955,26.0340758 12.1668701,27.2576094 13.1231244,28.2772207 C14.0793786,29.296832 15.2177765,30.089863 16.5383181,30.6563138 C17.8588596,31.2227645 19.3160089,31.5173189 20.886998,31.5173189 C22.7084346,31.5173189 24.3021917,31.1547904 25.6682692,30.4523915 C27.0343467,29.7499926 28.1272086,28.8210134 28.9468551,27.6654539 L35.3446513,33.6698317 C33.6825904,35.6410802 31.6107062,37.1591682 29.1289988,38.2694117 L29.1289988,38.2694117 Z" id="Shape"></path>
                <path d="M54.4014321,19.5085633 C54.0143768,19.3952732 53.6273215,19.3272991 53.2402662,19.3046411 C52.8532109,19.259325 52.4889236,19.259325 52.1474042,19.259325 C50.9634704,19.259325 49.9616803,19.4632473 49.1648017,19.8937498 C48.3679232,20.3242524 47.7076524,20.8453871 47.2295253,21.4344958 C46.7513982,22.0462626 46.3871109,22.7033455 46.1821993,23.4057444 C45.9772876,24.1081433 45.8634478,24.7425681 45.8634478,25.2637028 L45.8634478,38.9264945 L37.0522481,38.9264945 L37.0522481,12.325968 L45.5446964,12.325968 L45.5446964,16.177833 L45.6585362,16.177833 C46.341575,14.8183512 47.2978292,13.7081078 48.5728348,12.8471027 C49.8250725,11.9860976 51.2822218,11.555595 52.9215148,11.555595 C53.2858021,11.555595 53.6273215,11.578253 53.9688409,11.6009111 C54.3103602,11.6462271 54.5835757,11.6915432 54.8112553,11.7595173 L54.4014321,19.5085633 L54.4014321,19.5085633 Z" id="Shape"></path>
                <path d="M82.4970921,25.9434437 L82.4970921,27.008371 C82.4970921,27.3708995 82.4743242,27.71077 82.4515562,28.0279824 L63.0304881,28.0279824 C63.098792,28.7756973 63.3264716,29.4554382 63.7135269,30.067205 C64.1005821,30.6789718 64.5787093,31.2001065 65.1706762,31.6532671 C65.7626431,32.1064277 66.4229138,32.4462981 67.1514885,32.6955364 C67.8800631,32.9447748 68.6541737,33.0807229 69.4282843,33.0807229 C70.8171297,33.0807229 72.0010635,32.8314846 72.9800857,32.3103499 C73.9591079,31.7892153 74.7332185,31.1321324 75.3479533,30.2937853 L81.472534,34.1456503 C80.2202963,35.9582927 78.5582354,37.3630905 76.4863512,38.3373857 C74.4144671,39.311681 72.0238315,39.8101577 69.3144445,39.8101577 C67.3108642,39.8101577 65.3983557,39.4929452 63.622455,38.8811785 C61.8237863,38.2467536 60.2527972,37.3404325 58.9094877,36.1622149 C57.5661782,34.9613394 56.4960842,33.4885675 55.7447416,31.7438992 C54.970631,29.9992309 54.5835757,28.0053243 54.5835757,25.7395214 C54.5835757,23.5643506 54.970631,21.593102 55.7219736,19.8257757 C56.4733162,18.0584494 57.4978743,16.5630195 58.7956479,15.3394859 C60.0934215,14.1159523 61.6188747,13.1643151 63.3720075,12.4845742 C65.1251402,11.8048333 67.0376487,11.4649629 69.063997,11.4649629 C71.0448093,11.4649629 72.843478,11.8048333 74.5055389,12.4619162 C76.1448319,13.118999 77.5792132,14.0706363 78.763147,15.3168279 C79.9470808,16.5630195 80.8577992,18.0811075 81.5408379,19.8710918 C82.1555728,21.61576 82.4970921,23.6549827 82.4970921,25.9434437 L82.4970921,25.9434437 Z M74.3689312,22.5673973 C74.3689312,21.1852575 73.93634,19.9843819 73.0483896,18.9874286 C72.1604392,17.9904753 70.8626656,17.4919987 69.0867649,17.4919987 C68.2215825,17.4919987 67.4474719,17.6279469 66.7188973,17.8998432 C65.9903226,18.1717396 65.3755878,18.5342681 64.8291568,18.9874286 C64.2827258,19.4405892 63.8501346,20.00704 63.5313832,20.6188068 C63.2126318,21.2532316 63.0304881,21.8876564 62.9849522,22.5673973 L74.3689312,22.5673973 L74.3689312,22.5673973 Z" id="Shape"></path>
                <path d="M118.948593,38.9491525 L118.948593,24.3800396 C118.948593,23.6323247 118.903057,22.9072677 118.789217,22.2048688 C118.675377,21.5024699 118.493234,20.9133611 118.19725,20.4148845 C117.901267,19.9164078 117.514211,19.5085633 117.036084,19.2140089 C116.557957,18.9194546 115.920454,18.7608483 115.123576,18.7608483 C114.372233,18.7608483 113.711962,18.9194546 113.165531,19.236667 C112.6191,19.5538794 112.140973,19.9843819 111.776686,20.5281746 C111.389631,21.0719673 111.116415,21.6837341 110.934272,22.386133 C110.752128,23.088532 110.661056,23.8135889 110.661056,24.5613039 L110.661056,38.9491525 L101.849856,38.9491525 L101.849856,23.7456148 C101.849856,22.2048688 101.553873,21.0039933 100.939138,20.0976721 C100.324403,19.2140089 99.3681489,18.7608483 98.0248394,18.7608483 C96.635994,18.7608483 95.543132,19.3046411 94.7690214,20.4148845 C93.9949109,21.5251279 93.6078556,22.8846097 93.6078556,24.4933298 L93.6078556,38.9491525 L84.728352,38.9491525 L84.728352,12.30331 L93.2891042,12.30331 L93.2891042,15.9965688 L93.402944,15.9965688 C93.7216954,15.430118 94.1315186,14.8636673 94.6096457,14.3425326 C95.0877729,13.7987399 95.6797398,13.3455793 96.3627785,12.9150768 C97.0458172,12.5072322 97.7971598,12.1673618 98.6395743,11.9181235 C99.4819887,11.6688851 100.415475,11.532937 101.417265,11.532937 C103.352542,11.532937 104.991835,11.9181235 106.335144,12.7111545 C107.678454,13.5041855 108.72578,14.614429 109.477122,16.0872009 C110.365073,14.7050611 111.526238,13.5948176 112.915084,12.7791286 C114.303929,11.9634395 116.011526,11.555595 118.015106,11.555595 C119.836543,11.555595 121.384764,11.8954654 122.614234,12.5525483 C123.843704,13.2096311 124.845494,14.0706363 125.596836,15.1129056 C126.348179,16.155175 126.89461,17.3333925 127.236129,18.6475582 C127.577649,19.9617239 127.737025,21.2305735 127.737025,22.4767652 L127.737025,38.9718106 L118.948593,38.9718106 L118.948593,38.9491525 Z" id="Shape"></path>
                <path d="M130.856235,15.9285947 C132.427224,14.4331647 134.271428,13.3002633 136.366081,12.5525483 C138.460733,11.8048333 140.600921,11.4196468 142.786645,11.4196468 C145.040673,11.4196468 146.953181,11.6915432 148.52417,12.2579939 C150.095159,12.8017866 151.347397,13.6627917 152.326419,14.8183512 C153.305441,15.9739107 154.011248,17.4466826 154.443839,19.2140089 C154.899198,20.9813352 155.126878,23.0658739 155.126878,25.5129411 L155.126878,38.9491525 L147.067021,38.9491525 L147.067021,36.1168989 L146.907645,36.1168989 C146.224606,37.2271423 145.200048,38.0881474 143.811203,38.6772562 C142.422357,39.289023 140.94244,39.5835774 139.325915,39.5835774 C138.255821,39.5835774 137.140191,39.4476292 136.001793,39.1530748 C134.863395,38.8585204 133.816069,38.4053598 132.859815,37.770935 C131.903561,37.1365102 131.12945,36.2755051 130.514715,35.2105777 C129.899981,34.1456503 129.603997,32.8314846 129.603997,31.2454225 C129.603997,29.31949 130.12766,27.756086 131.197754,26.5778685 C132.24508,25.399651 133.611158,24.4933298 135.295987,23.858905 C136.958047,23.2244801 138.82502,22.7939776 140.851368,22.5673973 C142.900484,22.363475 144.881297,22.2501849 146.816573,22.2501849 L146.816573,21.8196823 C146.816573,20.5055166 146.361214,19.5312213 145.427728,18.8967965 C144.494242,18.2623717 143.355844,17.9678173 141.989766,17.9678173 C142.650037,17.9678173 139.530827,18.2397137 138.369661,18.7608483 C137.208495,19.3046411 136.206705,19.9390659 135.387058,20.6867808 L130.856235,15.9285947 L130.856235,15.9285947 Z M147.044253,27.3255835 L145.905855,27.3255835 C144.926833,27.3255835 143.970578,27.3708995 142.968788,27.4615316 C141.989766,27.5521638 141.101816,27.71077 140.327705,27.9600083 C139.553595,28.2092466 138.916092,28.5717751 138.415197,29.0475937 C137.914302,29.5234123 137.663854,30.1578371 137.663854,30.9508682 C137.663854,31.4493448 137.777694,31.8798474 138.005374,32.2423758 C138.233053,32.6049043 138.529037,32.8768007 138.893324,33.103381 C139.257611,33.3073032 139.667434,33.4659094 140.122794,33.5565415 C140.578153,33.6471737 141.033512,33.6924897 141.466103,33.6924897 C143.264772,33.6924897 144.630849,33.1940131 145.587104,32.2197178 C146.543358,31.2454225 147.021485,29.9085988 147.021485,28.2319046 L147.021485,27.3255835 L147.044253,27.3255835 Z" id="Shape"></path>
            </g>
        </g>
    </g>
</svg>