<?xml version="1.0" encoding="UTF-8" standalone="no"?>
<svg width="60px" height="60px" viewBox="0 0 60 60" version="1.1" xmlns="http://www.w3.org/2000/svg" xmlns:xlink="http://www.w3.org/1999/xlink" xmlns:sketch="http://www.bohemiancoding.com/sketch/ns">
    <!-- Generator: Sketch 3.4 (15575) - http://www.bohemiancoding.com/sketch -->
    <title>Shape Copy 2</title>
    <desc>Created with Sketch.</desc>
    <defs></defs>
    <g id="Crema-Site" stroke="none" stroke-width="1" fill="none" fill-rule="evenodd" sketch:type="MSPage">
        <path d="M30,60 C46.5425,60 60,46.5425 60,30 C60,13.46 46.5425,0 30,0 C13.4575,0 0,13.46 0,30 C0,46.5425 13.4575,60 30,60 L30,60 Z M20,18.75 C20,18.3175 20.225,17.915 20.5925,17.6875 C20.96,17.4575 21.4225,17.4375 21.8075,17.6325 L44.3075,28.8825 C44.7325,29.095 45,29.5275 45,30 C45,30.4725 44.7325,30.905 44.31,31.1175 L21.81,42.3675 C21.6325,42.455 21.4425,42.5 21.25,42.5 C21.0225,42.5 20.7925,42.44 20.5925,42.315 C20.225,42.0875 20,41.685 20,41.25 L20,18.75 L20,18.75 Z" id="Shape-Copy-2" fill="#FFFFFF" sketch:type="MSShapeGroup"></path>
    </g>
</svg>