<svg version="1.1" id="Layer_1" xmlns="http://www.w3.org/2000/svg" x="0" y="0" width="146.35" height="42.931" viewBox="0 0 146.35 42.931" xml:space="preserve"><g fill="#ccc"><path d="M41.243 8.767s.96.443 1.646-.15l-2.323-2.32-11.234 11.23-4.85 22.6s-5.776.946-14.14-7.42c-8.332-8.33-7.282-14.55-7.282-14.55l22.355-4.547L36.648 2.377 34.27 0c-.544.69-.332 1.94-.332 1.94l-9.633 9.635L.015 16.85s-.775 8.76 8.648 17.957c8.75 8.542 17.432 8.12 17.432 8.12l5.273-24.288 9.875-9.873z"/><path d="M12.13 30.924c5.98 5.773 10.463 6.544 10.463 6.544l3.084-13.338s.016-.062.023-.174c.05-.592-.074-2.542-3.59-3.392-4.17-1.01-3.39-3.39-3.39-3.39l-7.32 1.59-5.33 1.133s.075 5.252 6.06 11.027z"/><g><path d="M53.11 30.664c-.416.57-.973 1.037-1.654 1.386s-1.477.525-2.365.525c-.86 0-1.646-.15-2.33-.446-.685-.296-1.28-.717-1.77-1.253-.49-.538-.873-1.19-1.14-1.94-.267-.754-.4-1.6-.4-2.516 0-.865.138-1.678.413-2.415.272-.734.668-1.383 1.176-1.93.505-.545 1.118-.98 1.82-1.29 1.246-.555 2.81-.683 4.422-.058.688.268 1.254.697 1.682 1.28l.146.195 2.723-2.155-.14-.185c-.356-.477-.796-.89-1.306-1.23-.502-.334-1.043-.617-1.61-.843-.565-.226-1.167-.396-1.784-.504-.615-.107-1.215-.163-1.78-.163-1.36 0-2.64.22-3.805.65-1.168.435-2.195 1.06-3.055 1.86-.86.804-1.547 1.79-2.04 2.934-.49 1.142-.74 2.438-.74 3.853 0 1.38.236 2.658.702 3.8.467 1.14 1.127 2.14 1.963 2.967.836.827 1.847 1.48 3.006 1.937 1.158.458 2.443.69 3.82.69 1.515 0 2.858-.275 3.997-.82 1.138-.542 2.112-1.317 2.9-2.306l.155-.195-2.87-2.017-.135.188zM64.922 22.817c-.137-.008-.264-.013-.38-.013-.833 0-1.57.23-2.196.682-.406.294-.758.65-1.047 1.064v-1.402H58.01v12.226h3.41v-6.53c0-.193.04-.464.117-.804.073-.33.218-.657.43-.975.208-.312.505-.584.88-.81.44-.265 1.08-.404 1.87-.31.128.014.288.045.474.092l.293.073v-3.167l-.162-.054c-.116-.037-.25-.062-.403-.073zM76.44 24.48c-.528-.552-1.163-.975-1.886-1.255-.72-.28-1.51-.42-2.35-.42-.907 0-1.765.157-2.548.47-.785.312-1.475.758-2.05 1.323-.575.567-1.034 1.262-1.362 2.062s-.496 1.7-.496 2.673c0 .99.168 1.89.496 2.675.33.787.795 1.46 1.38 2.004.583.542 1.28.966 2.073 1.26.79.295 1.668.444 2.605.444 2.27 0 4.033-.823 5.234-2.446l.135-.184-2.335-1.867-.143.207c-.305.44-.695.79-1.166 1.04-.468.25-1.056.376-1.75.376-.393 0-.777-.07-1.14-.205-.368-.138-.7-.326-.987-.562-.286-.232-.517-.513-.69-.835-.134-.247-.224-.52-.272-.813h8.878l.025-.208c.02-.14.028-.28.028-.42v-.394c0-1.082-.148-2.044-.443-2.86-.292-.817-.708-1.512-1.236-2.065zm-1.737 3.37h-5.515c.104-.657.402-1.192.906-1.63.566-.49 1.268-.738 2.086-.738.438 0 .822.07 1.14.213.317.14.583.33.788.563.205.234.357.51.453.82.077.246.126.505.143.772zM97.758 24.363c-.37-.467-.852-.847-1.428-1.13-.576-.284-1.275-.43-2.074-.43-.92 0-1.734.206-2.422.61-.572.336-1.055.8-1.438 1.38-.326-.536-.754-.984-1.273-1.336-.64-.434-1.45-.653-2.408-.653-.496 0-.955.065-1.37.194-.41.13-.784.31-1.104.534-.315.223-.595.475-.827.75-.057.067-.11.134-.16.202v-1.337H79.99v12.226h3.41v-6.7c0-.37.05-.74.15-1.102.098-.355.244-.673.432-.942.182-.264.424-.483.72-.652.288-.166.636-.25 1.032-.25.678 0 1.154.204 1.46.625.32.44.483 1.006.483 1.686v7.338h3.41v-6.652c0-.354.047-.717.14-1.08.09-.355.237-.68.43-.966.194-.28.44-.513.737-.69.287-.172.64-.26 1.053-.26.424 0 .762.086 1.006.253.252.172.453.396.598.663.15.277.25.592.294.935.047.36.07.714.07 1.047v6.75h3.412v-7.582c0-.62-.086-1.236-.254-1.828-.17-.6-.445-1.138-.814-1.602zM110.666 24.482c-.412-.5-.982-.91-1.69-1.217-.704-.306-1.605-.46-2.68-.46-.92 0-1.84.16-2.735.478-.897.32-1.704.806-2.394 1.444l-.166.156 1.832 2.155.18-.182c.354-.353.81-.658 1.352-.906.537-.246 1.105-.37 1.69-.37.683 0 1.276.163 1.767.486.466.308.69.775.69 1.432v.058c-.842.008-1.71.053-2.59.135-.97.093-1.865.282-2.664.564-.814.29-1.492.713-2.014 1.26-.54.565-.812 1.33-.812 2.27 0 .727.156 1.35.463 1.85.303.493.69.896 1.148 1.2.454.298.956.516 1.497.645.53.125 1.047.19 1.535.19.867 0 1.652-.18 2.338-.53.467-.238.852-.527 1.148-.863v1.1h3.215v-7.388c0-.604-.08-1.218-.24-1.824-.162-.62-.455-1.186-.867-1.684zm-2.58 5.53h.424v.18c0 .862-.24 1.548-.717 2.04-.475.487-1.19.735-2.133.735-.227 0-.46-.023-.688-.07-.22-.043-.416-.116-.588-.216-.166-.096-.297-.22-.398-.378-.098-.146-.146-.338-.146-.568 0-.372.117-.653.36-.86.267-.23.61-.413 1.017-.542.422-.133.893-.22 1.393-.26.513-.04 1.01-.06 1.476-.06zM114.246 16.39h3.41v18.984h-3.41zM129.646 24.482c-.414-.5-.984-.91-1.693-1.217-.703-.306-1.604-.46-2.676-.46-.922 0-1.842.16-2.736.478-.9.32-1.706.806-2.395 1.444l-.166.154 1.83 2.156.183-.182c.352-.353.807-.658 1.352-.906.537-.246 1.105-.37 1.688-.37.684 0 1.28.163 1.768.486.466.308.69.775.69 1.432v.058c-.84.008-1.71.053-2.588.135-.97.09-1.865.28-2.666.562-.814.29-1.494.713-2.016 1.26-.537.565-.81 1.33-.81 2.27 0 .727.155 1.35.462 1.85.303.493.69.896 1.15 1.2.45.298.955.516 1.496.645.53.126 1.047.19 1.535.19.865 0 1.652-.178 2.336-.528.466-.24.85-.53 1.15-.865v1.1h3.214v-7.388c0-.603-.082-1.217-.24-1.823-.164-.618-.455-1.184-.868-1.682zm-2.582 5.53h.424v.18c0 .862-.24 1.548-.717 2.04-.472.487-1.19.735-2.13.735-.23 0-.46-.023-.688-.07-.22-.043-.418-.116-.59-.216-.164-.096-.295-.22-.398-.378-.096-.146-.145-.338-.145-.568 0-.372.116-.653.356-.86.27-.23.61-.413 1.02-.542.422-.133.89-.22 1.393-.26.512-.04 1.01-.06 1.474-.06zM145.92 26.705c-.287-.774-.7-1.46-1.223-2.035-.525-.576-1.162-1.036-1.89-1.366-.73-.33-1.538-.5-2.4-.5-.558 0-1.065.066-1.51.194-.438.126-.83.286-1.163.474-.334.19-.625.398-.865.62-.087.08-.167.157-.24.235V16.39h-3.41v18.984h3.263V34.05c.38.46.854.828 1.41 1.103.756.374 1.578.563 2.443.563.928 0 1.773-.177 2.512-.525.736-.345 1.37-.817 1.89-1.402.515-.585.917-1.278 1.196-2.062.275-.78.416-1.627.416-2.515 0-.887-.145-1.73-.43-2.505zm-3.03 2.507c0 .43-.065.87-.198 1.303-.13.428-.326.813-.584 1.148-.256.33-.586.606-.98.817-.386.21-.85.314-1.38.314-.5 0-.947-.102-1.336-.304-.395-.205-.736-.478-1.018-.812s-.498-.717-.643-1.137c-.145-.422-.22-.853-.22-1.28s.074-.865.22-1.296c.146-.43.362-.814.644-1.148.28-.335.625-.612 1.02-.825.388-.208.837-.313 1.333-.313.53 0 .996.102 1.385.304.39.204.72.475.975.805.258.335.455.718.584 1.138.134.426.2.858.2 1.29z"/></g></g></svg>