<svg xmlns="http://www.w3.org/2000/svg" version="1.1" id="Layer_1" x="0" y="0" width="252" height="252" viewBox="0 0 252 252" xml:space="preserve"><g fill="#FFF"><path d="M241.61 52.122s5.6 2.6 9.6-.867l-13.54-13.53-65.475 65.465-28.27 131.7S110.26 240.4 61.5 191.64c-48.562-48.56-42.44-84.804-42.44-84.804l130.3-26.478 65.47-65.478L200.98 1c-3.175 4.02-1.944 11.312-1.944 11.312l-56.15 56.155L1.302 99.237s-4.518 51.1 50.4 104.7c51.008 49.8 101.6 47.3 101.6 47.337l30.74-141.576 57.57-57.576z"/><path d="M71.917 181.282c34.875 33.6 61 38.1 61 38.135l17.977-77.734s.093-.373.137-1.022c.28-3.444-.43-14.815-20.925-19.765-24.312-5.892-19.757-19.76-19.757-19.76l-42.672 9.27-31.06 6.6C36.605 117 37 147.6 71.9 181.283z"/></g></svg>