<svg version="1.1" id="Layer_1" xmlns="http://www.w3.org/2000/svg" x="0" y="0" viewBox="137.4 -196 110.7 110.8" xml:space="preserve"><g fill="#414141"><path d="M243.8-173.4s2.5 1.1 4.2-.4l-6-6-29 29-12.5 58.3s-14.9 2.4-36.5-19.1c-21.5-21.5-18.8-37.5-18.8-37.5l57.7-11.7 29-29-6.1-6.1c-1.4 1.8-.9 5-.9 5L200-166l-62.7 13.6s-2 22.6 22.3 46.3c22.6 22 45 21 45 21l13.6-62.7 25.6-25.6z"/><path d="M168.7-116.2c15.4 14.9 27 16.9 27 16.9l8-34.4s0-.2.1-.4c.1-1.5-.2-6.6-9.3-8.8-10.8-2.6-8.7-8.7-8.7-8.7l-18.9 4.1-13.8 2.9c0-.1.2 13.5 15.6 28.4z"/></g></svg>