<svg width="156" height="41" viewBox="0 0 156 41" version="1.1" xmlns="http://www.w3.org/2000/svg"><title>Crema_logo-03 Copy</title><g id="Crema-Site" stroke="none" stroke-width="1" fill="none" fill-rule="evenodd"><g id="Crema_logo-03-Copy" fill="#FFF"><g id="Group"><path d="M29.63 38.922c-2.483 1.133-5.33 1.676-8.562 1.676-2.937 0-5.646-.475-8.15-1.45-2.482-.974-4.645-2.333-6.49-4.1-1.82-1.768-3.255-3.875-4.303-6.345-1.047-2.47-1.57-5.166-1.57-8.134 0-3.037.523-5.78 1.593-8.25 1.047-2.468 2.527-4.553 4.394-6.298C8.41 4.3 10.595 2.962 13.1 2.034c2.504-.928 5.213-1.382 8.128-1.382 2.686 0 5.327.476 7.923 1.428 2.596.95 4.714 2.334 6.33 4.146l-6.238 6.21c-.865-1.18-1.98-2.063-3.392-2.63-1.39-.566-2.824-.86-4.304-.86-1.616 0-3.096.294-4.44.883-1.343.588-2.504 1.404-3.46 2.423-.98 1.043-1.73 2.266-2.254 3.67-.547 1.406-.797 2.946-.797 4.623 0 1.722.273 3.286.797 4.713.546 1.426 1.275 2.65 2.23 3.67.957 1.02 2.096 1.812 3.416 2.38 1.32.565 2.778.86 4.35.86 1.82 0 3.414-.363 4.78-1.065 1.366-.703 2.46-1.632 3.28-2.787l6.397 6.004c-1.662 1.97-3.734 3.49-6.216 4.6zM54.9 20.16c-.386-.112-.773-.18-1.16-.203-.387-.045-.75-.045-1.093-.045-1.184 0-2.185.204-2.982.634-.797.43-1.457.952-1.935 1.54-.48.613-.843 1.27-1.048 1.972-.205.702-.32 1.337-.32 1.858V39.58h-8.81V12.977h8.493v3.852h.114c.682-1.36 1.638-2.47 2.913-3.33 1.252-.862 2.71-1.292 4.35-1.292.363 0 .704.023 1.046.045.34.046.614.09.84.16l-.41 7.748zM82.997 26.596v1.065c0 .363-.023.703-.045 1.02H63.53c.07.748.296 1.428.684 2.04.387.61.865 1.132 1.457 1.586.593.453 1.253.793 1.98 1.042.73.25 1.504.385 2.278.385 1.39 0 2.573-.25 3.552-.77.98-.52 1.753-1.18 2.368-2.017l6.125 3.852c-1.253 1.813-2.915 3.217-4.987 4.192-2.072.974-4.462 1.473-7.172 1.473-2.003 0-3.916-.318-5.692-.93-1.798-.634-3.37-1.54-4.713-2.718-1.344-1.2-2.414-2.674-3.165-4.42-.774-1.743-1.16-3.737-1.16-6.003 0-2.175.386-4.147 1.137-5.914.75-1.767 1.776-3.263 3.074-4.486 1.297-1.224 2.823-2.175 4.576-2.855 1.753-.68 3.666-1.02 5.692-1.02 1.98 0 3.78.34 5.442.997 1.64.657 3.073 1.61 4.257 2.855 1.184 1.245 2.095 2.763 2.778 4.553.616 1.745.957 3.784.957 6.073zM74.87 23.22c0-1.382-.434-2.583-1.322-3.58-.888-.997-2.185-1.496-3.96-1.496-.866 0-1.64.136-2.37.408-.728.272-1.342.635-1.89 1.088-.545.453-.978 1.02-1.297 1.63-.317.636-.5 1.27-.545 1.95H74.87zM119.45 39.6V25.033c0-.747-.047-1.472-.16-2.175-.115-.702-.297-1.29-.593-1.79-.296-.498-.683-.906-1.16-1.2-.48-.295-1.117-.454-1.913-.454-.752 0-1.412.16-1.958.476-.547.316-1.025.747-1.39 1.29-.386.544-.66 1.156-.842 1.858-.182.703-.273 1.428-.273 2.176V39.6h-8.81V24.4c0-1.54-.296-2.742-.91-3.648-.616-.884-1.572-1.337-2.915-1.337-1.39 0-2.482.544-3.256 1.654-.775 1.11-1.162 2.47-1.162 4.08V39.6h-8.88V12.957h8.56v3.693h.115c.32-.568.73-1.134 1.207-1.655.478-.544 1.07-.997 1.753-1.428.683-.407 1.434-.747 2.277-.997.842-.25 1.775-.385 2.777-.385 1.936 0 3.575.385 4.918 1.178 1.343.794 2.39 1.904 3.142 3.377.888-1.383 2.05-2.493 3.438-3.31 1.39-.814 3.097-1.222 5.1-1.222 1.822 0 3.37.34 4.6.997 1.23.657 2.23 1.518 2.982 2.56.75 1.043 1.298 2.22 1.64 3.535.34 1.314.5 2.583.5 3.83v16.494h-8.788V39.6zM131.356 16.58c1.57-1.494 3.415-2.627 5.51-3.375 2.095-.748 4.235-1.133 6.42-1.133 2.255 0 4.167.272 5.738.838 1.57.544 2.823 1.405 3.802 2.56.98 1.156 1.685 2.63 2.118 4.396.455 1.768.683 3.852.683 6.3V39.6h-8.06v-2.83h-.16c-.682 1.11-1.707 1.97-3.096 2.56-1.388.61-2.868.906-4.484.906-1.07 0-2.186-.136-3.324-.43-1.14-.295-2.186-.748-3.142-1.383-.956-.634-1.73-1.495-2.345-2.56-.615-1.065-.91-2.38-.91-3.965 0-1.926.523-3.49 1.593-4.668 1.047-1.178 2.413-2.084 4.098-2.72 1.662-.633 3.53-1.064 5.555-1.29 2.05-.204 4.03-.317 5.967-.317v-.43c0-1.315-.456-2.29-1.39-2.924-.933-.635-2.07-.93-3.437-.93.66 0-2.46.272-3.62.793-1.162.544-2.163 1.178-2.983 1.926l-4.53-4.76zm16.188 11.398h-1.138c-.98 0-1.935.045-2.937.136-.98.09-1.868.25-2.642.498-.774.25-1.412.612-1.913 1.088-.5.476-.75 1.11-.75 1.903 0 .5.113.93.34 1.292.228.362.524.634.888.86.365.205.774.363 1.23.454.455.09.91.135 1.343.135 1.8 0 3.165-.5 4.12-1.473.957-.974 1.435-2.31 1.435-3.988v-.906h.024z" id="Shape"/></g></g></g></svg>