<svg width="257" height="195" viewBox="0 0 257 195" version="1.1" xmlns="http://www.w3.org/2000/svg"><title>golden_layer</title><g id="Page-1" stroke="none" stroke-width="1" fill="none" fill-rule="evenodd"><g id="Approach"><g id="golden_layer"><path d="M89.712 1.06s-.713 21.468 0 39.04c.712 17.57 1.365 42.79 1.365 42.79s2.176 32.35 1.523 33.87c-.653 1.517-6.963 0-6.963 0s.87-21.776 0-44.12c-.87-22.344-1.74-37.53-3.59-50.763-1.85-13.233-2.845-20.192-1.67-20.88.764-.446 9.335.063 9.335.063" id="Fill-2" fill="#D1D3D4"/><path d="M9.123 106.924s32.2-13.594 60.63 1.446 43.226.58 43.226.58l-3.482 16.486s-36.263 9.545-97.184-.867l-3.19-17.646" id="Fill-5" fill="#D1D3D4"/><path d="M12.604 126.882l5.222 25.454s40.905 10.99 87.03-1.446l3.772-22.85s-43.516 10.99-96.024-1.158zm5.512 29.214s33.942 10.702 85.87 0l-3.19 18.223s-2.03 12.726-9.574 12.726h-56.86s-10.734.868-13.055-12.438c-2.32-13.305-3.19-18.512-3.19-18.512z" id="Stroke-6" stroke="#D1D3D4"/><path d="M79.328 86.388l-78.038.074 17.406 95.088s3.482 12.438 15.376 12.438h54.17s13.714.29 16.325-13.595c2.076-11.04 17.406-94.005 17.406-94.005h-25.24" id="Stroke-7" stroke="#000" stroke-linecap="round" stroke-linejoin="round"/><path d="M167.143.916s.713 21.467 0 39.04c-.712 17.57-1.365 42.79-1.365 42.79s-2.175 32.35-1.523 33.868c.653 1.52 6.963 0 6.963 0s-.87-21.775 0-44.12c.87-22.343 1.74-37.53 3.59-50.762 1.85-13.233 2.845-20.192 1.67-20.878-.764-.448-9.335.062-9.335.062" id="Fill-8" fill="#D1D3D4"/><path d="M247.732 106.78s-32.2-13.595-60.63 1.446c-28.43 15.04-43.227.578-43.227.578l3.482 16.487s36.263 9.547 97.184-.866l3.192-17.644" id="Fill-11" fill="#D1D3D4"/><path d="M244.25 126.738l-5.22 25.453s-40.905 10.993-87.032-1.445l-3.77-22.85s43.514 10.99 96.023-1.157zm-5.51 29.214s-33.943 10.702-85.87 0l3.19 18.222s2.03 12.727 9.573 12.727h56.86s10.734.87 13.055-12.436c2.32-13.306 3.19-18.512 3.19-18.512z" id="Stroke-12" stroke="#D1D3D4"/><path d="M177.527 86.243l78.038.075-17.406 95.088s-3.483 12.437-15.377 12.437h-54.17s-13.714.29-16.324-13.595c-2.078-11.04-17.408-94.005-17.408-94.005h25.24" id="Stroke-13" stroke="#000" stroke-linecap="round" stroke-linejoin="round"/></g></g></g></svg>