<svg width="32" height="50" viewBox="0 0 32 50" version="1.1" xmlns="http://www.w3.org/2000/svg" xmlns:xlink="http://www.w3.org/1999/xlink"><title>Page 1 Copy 3</title><defs><path id="path-1" d="M0 0h50v50H0"/></defs><g id="Updates" stroke="none" stroke-width="1" fill="none" fill-rule="evenodd"><g id="Page-1-Copy-3" transform="translate(-9)"><mask id="mask-2" fill="#fff"><use xlink:href="#path-1"/></mask><path d="M14.554 24.998L40.027 3.68c.88-.738.998-2.05.26-2.934-.74-.883-2.054-.998-2.935-.263L9.97 23.4c-.474.396-.745.983-.745 1.6 0 .617.273 1.2.744 1.6L37.35 49.517c.39.323.865.483 1.338.483.593 0 1.183-.254 1.6-.746.737-.88.62-2.196-.26-2.935L14.553 24.997" id="Fill-1" fill="#FFF" mask="url(#mask-2)"/></g></g></svg>