<svg width="60" height="60" viewBox="0 0 60 60" version="1.1" xmlns="http://www.w3.org/2000/svg"><title>Shape Copy 2</title><g id="Crema-Site" stroke="none" stroke-width="1" fill="none" fill-rule="evenodd"><path d="M30 60c16.542 0 30-13.458 30-30C60 13.46 46.542 0 30 0 13.457 0 0 13.46 0 30c0 16.542 13.457 30 30 30zM20 18.75c0-.433.225-.835.593-1.063.367-.23.83-.25 1.215-.055l22.5 11.25c.425.213.692.645.692 1.118 0 .473-.267.905-.69 1.117l-22.5 11.25c-.177.088-.367.133-.56.133-.227 0-.457-.06-.657-.185-.368-.227-.593-.63-.593-1.065v-22.5z" id="Shape-Copy-2" fill="#FFF"/></g></svg>