<svg version="1.1" id="Layer_1" xmlns="http://www.w3.org/2000/svg" x="0" y="0" width="640" height="1136" viewBox="0 0 640 1136" xml:space="preserve"><path fill="#2C3338" d="M425 441c0-5.523-4.478-10-10-10H225c-5.523 0-10 4.477-10 10v257c0 5.522 4.477 10 10 10h190c5.522 0 10-4.478 10-10V441zm-24 241H239V458h162v224z"/><path fill="#F1F1F2" d="M401.104 670.14V457.87H301.066z"/><ellipse fill="#BBBDBF" cx="320.002" cy="695.028" rx="7.019" ry="6.731"/><ellipse fill="#2C3338" cx="320.002" cy="695.228" rx="7.019" ry="6.731"/><path fill="#E6E7E8" d="M321.634 692.666h-3.264c-.535 0-.97.43-.97.957v3.085c0 .53.435.957.97.957h3.264c.536 0 .97-.428.97-.957v-3.085c0-.528-.434-.957-.97-.957zm.535 3.784c0 .44-.363.797-.81.797h-2.717c-.446 0-.81-.356-.81-.797v-2.57c0-.44.363-.796.81-.796h2.717c.446 0 .81.356.81.797v2.57z"/></svg>