<svg width="380" height="797" viewBox="0 0 380 797" version="1.1" xmlns="http://www.w3.org/2000/svg"><title>iphone-black</title><description>Created with Sketch (http://www.bohemiancoding.com/sketch)</description><g id="Page-1" stroke="none" stroke-width="1" fill="none" fill-rule="evenodd"><g id="Black"><rect id="Lock-Button" fill="#111" x="255" y="0" width="62" height="9" rx="2"/><rect id="Alarm-Button" fill="#111" x="0" y="113" width="8" height="35" rx="2"/><rect id="Volume-Up" fill="#111" x="0" y="188" width="8" height="26" rx="2"/><rect id="Volume-Down" fill="#111" x="0" y="254" width="8" height="26" rx="2"/><rect id="Antenna-copy" fill="#212222" x="4" y="3" width="376" height="794" rx="57"/><path id="Separator-Bottom" fill="#1A1A1B" d="M4 725h376v8H4z"/><path id="Separator-Top" fill="#1A1A1B" d="M4 72h376v8H4z"/><rect id="Body" fill="#1C1D1D" x="13" y="12" width="358" height="777" rx="48"/><rect id="Screen" fill="#000" x="32" y="117" width="320" height="570" rx="1"/><circle id="Home-Button" fill="#191A1A" cx="192" cy="740" r="34"/><rect id="Home-Icon" stroke="#272727" stroke-width="4" fill="#191A1A" x="182" y="730" width="20" height="20" rx="6"/><path d="M178 736v8c0 5.525 4.47 10 10 10h8c5.525 0 10-4.47 10-10v-8c0-5.525-4.47-10-10-10h-8c-5.525 0-10 4.47-10 10zm4 0v8c0 3.313 2.677 6 6 6h8c3.313 0 6-2.677 6-6v-8c0-3.313-2.677-6-6-6h-8c-3.313 0-6 2.677-6 6z" id="Home-Icon-copy" fill="#272727"/><rect id="Speaker" fill="#111" x="162" y="69" width="60" height="8" rx="6"/><path d="M200 43c0-4.418-3.582-8-8-8s-8 3.582-8 8 3.582 8 8 8 8-3.582 8-8z" id="Camera" fill="#191A1A"/><circle id="Camera-copy" fill="#2F3030" cx="192" cy="43" r="4"/><path d="M4 60.003v679.994C4 771.48 29.512 797 61.004 797h261.992C354.478 797 380 771.48 380 739.997V60.003C380 28.52 354.488 3 322.996 3H61.004C29.522 3 4 28.52 4 60.003zM322.996 7C352.276 7 376 30.727 376 60.003v679.994C376 769.27 352.27 793 322.996 793H61.004C31.724 793 8 769.273 8 739.997V60.003C8 30.73 31.73 7 61.004 7h261.992z" id="Antenna" fill="#1C1D1D"/><path d="M29 118.003v567.994c0 2.213 1.802 4.003 4.005 4.003h317.99c2.21 0 4.005-1.78 4.005-4.003V118.003c0-2.213-1.802-4.003-4.005-4.003H33.005c-2.21 0-4.005 1.78-4.005 4.003zm3 0v567.994c0 .554.457 1.003 1.005 1.003h317.99c.555 0 1.005-.44 1.005-1.003V118.003c0-.554-.457-1.003-1.005-1.003H33.005c-.555 0-1.005.44-1.005 1.003z" id="Screen-copy" fill="#171717"/><path d="M158 73c0 4.42 3.588 8 8.007 8h51.986c4.42 0 8.007-3.584 8.007-8 0-4.42-3.588-8-8.007-8h-51.986c-4.42 0-8.007 3.584-8.007 8zm4 0c0 2.21 1.796 4 4.007 4h51.986c2.213 0 4.007-1.795 4.007-4 0-2.21-1.796-4-4.007-4h-51.986c-2.213 0-4.007 1.795-4.007 4z" id="Speaker-copy" fill="#191A1A"/></g></g></svg>